<svg width="50" height="50" viewBox="0 0 50 50" fill="none" xmlns="http://www.w3.org/2000/svg">
<path d="M14.7562 31.8237C15.2008 31.8211 15.6442 31.7807 16.082 31.7031C16.646 31.6139 17.1912 31.4307 17.6944 31.1609C18.3404 30.8089 18.6586 30.3967 18.6586 29.9195C18.6616 29.6743 18.576 29.4363 18.4176 29.2493C18.3442 29.1549 18.2498 29.0787 18.1418 29.0267C18.034 28.9749 17.9154 28.9486 17.7958 28.9504C17.5162 28.9858 17.2472 29.0784 17.0052 29.2228C16.6752 29.394 16.3298 29.5337 15.9734 29.6399C15.5802 29.7431 15.1748 29.7917 14.7682 29.7845C14.251 29.7941 13.74 29.6713 13.284 29.4272C12.8278 29.1834 12.4418 28.8267 12.1626 28.3913C11.588 27.5267 11.2958 26.505 11.3262 25.4674C11.3042 24.418 11.5892 23.385 12.1458 22.4952C12.4062 22.046 12.7814 21.674 13.2328 21.4174C13.6844 21.1606 14.196 21.0286 14.7152 21.0346C15.0396 21.0278 15.3636 21.0618 15.6794 21.1358C16.1372 21.2702 16.5774 21.4588 16.9906 21.6974C17.1488 21.8014 17.33 21.8652 17.5186 21.883C17.7646 21.8764 17.999 21.7758 18.1734 21.6018C18.3476 21.428 18.4488 21.194 18.4562 20.9478C18.452 20.6794 18.349 20.422 18.167 20.2246C17.4744 19.41 16.3494 19.0026 14.7924 19.0026C13.9814 18.9764 13.1754 19.1366 12.4362 19.471C11.6968 19.8052 11.0442 20.3048 10.5284 20.931C9.54021 22.22 9.00321 23.798 9.00001 25.4222C8.99701 27.0464 9.52801 28.6266 10.5114 29.9195C11.026 30.5405 11.6764 31.0353 12.4122 31.3653C13.1482 31.6955 13.9502 31.8523 14.7562 31.8237Z" fill="#2F0D46"/>
<path d="M20.997 26.4338H24.2076V29.6784C24.2076 30.1604 24.468 30.4014 24.991 30.4014C25.514 30.4014 25.7552 30.1604 25.7552 29.7048V26.4338H28.949C29.431 26.4338 29.672 26.1928 29.672 25.6698C29.672 25.1468 29.431 24.9056 28.9754 24.9056H25.7552V21.6782C25.7552 21.2122 25.5004 20.98 24.991 20.9816C24.4816 20.9832 24.2204 21.2154 24.2076 21.6782V24.9056H20.997C20.531 24.9056 20.2988 25.1604 20.3004 25.6698C20.2976 25.866 20.367 26.0566 20.4956 26.205C20.5562 26.2786 20.633 26.3376 20.7198 26.3772C20.8068 26.4168 20.9014 26.4362 20.997 26.4338Z" fill="#2F0D46"/>
<path d="M32.5839 26.4338H35.7947V29.6784C35.7947 30.1604 36.0573 30.4014 36.5781 30.4014C37.0987 30.4014 37.3421 30.1604 37.3421 29.7048V26.4338H40.5359C41.0181 26.4338 41.2591 26.1928 41.2591 25.6698C41.2591 25.1468 41.0181 24.9056 40.5625 24.9056H37.3421V21.6782C37.3421 21.2122 37.0875 20.98 36.5781 20.9816C36.0687 20.9832 35.8075 21.2154 35.7947 21.6782V24.9056H32.5839C32.1211 24.9056 31.8873 25.1612 31.8873 25.6698C31.8847 25.866 31.9541 26.0566 32.0827 26.205C32.1435 26.2784 32.2203 26.337 32.3071 26.3768C32.3939 26.4164 32.4885 26.436 32.5839 26.4338Z" fill="#2F0D46"/>
</svg>
