<svg width="75" height="75" viewBox="0 0 75 75" fill="none" xmlns="http://www.w3.org/2000/svg">
<path d="M65.332 5.85938H58.5938V2.34375C58.5938 1.04941 57.5445 0 56.25 0C54.9555 0 53.9062 1.04941 53.9062 2.34375V5.85938H21.0938V2.34375C21.0938 1.04941 20.0445 0 18.75 0C17.4555 0 16.4062 1.04941 16.4062 2.34375V5.85938H9.66797C4.33696 5.85938 0 10.1963 0 15.5273V65.332C0 70.663 4.33696 75 9.66797 75H65.332C70.663 75 75 70.663 75 65.332V15.5273C75 10.1963 70.663 5.85938 65.332 5.85938ZM9.66797 10.5469H16.4062V12.8906C16.4062 14.185 17.4555 15.2344 18.75 15.2344C20.0445 15.2344 21.0938 14.185 21.0938 12.8906V10.5469H53.9062V12.8906C53.9062 14.185 54.9555 15.2344 56.25 15.2344C57.5445 15.2344 58.5938 14.185 58.5938 12.8906V10.5469H65.332C68.0783 10.5469 70.3125 12.7811 70.3125 15.5273V21.0938H4.6875V15.5273C4.6875 12.7811 6.92168 10.5469 9.66797 10.5469ZM65.332 70.3125H9.66797C6.92168 70.3125 4.6875 68.0783 4.6875 65.332V25.7812H70.3125V65.332C70.3125 68.0783 68.0783 70.3125 65.332 70.3125Z" fill="#F49A0D"/>
</svg>
