<svg width="100" height="100" viewBox="0 0 100 100" fill="none" xmlns="http://www.w3.org/2000/svg">
<path d="M97.0703 37.6562H88.6734C87.9854 35.5 87.115 33.4023 86.0715 31.3853L92.0123 25.4445C92.5617 24.8951 92.8705 24.15 92.8705 23.373C92.8705 22.5959 92.5617 21.8508 92.0123 21.3016L78.699 7.98828C77.5551 6.84414 75.7002 6.84414 74.5559 7.98828L68.615 13.9289C66.5977 12.8854 64.5002 12.0152 62.3438 11.327V2.92969C62.3438 1.31172 61.032 0 59.4141 0H40.5863C38.9684 0 37.6566 1.31172 37.6566 2.92969V11.3266C35.5004 12.0146 33.4029 12.885 31.3857 13.9285L25.4451 7.98789C24.301 6.84375 22.4461 6.84375 21.302 7.98789L7.98828 21.3012C7.43887 21.8506 7.13027 22.5957 7.13027 23.3727C7.13027 24.1498 7.43887 24.8947 7.98828 25.4441L13.9291 31.385C12.8857 33.4021 12.0154 35.4994 11.3271 37.6559H2.92969C1.31172 37.6559 0 38.9676 0 40.5855V59.4135C0 61.0314 1.31172 62.3432 2.92969 62.3432H11.3268C12.015 64.4994 12.8854 66.5967 13.9289 68.6141L7.98809 74.5549C7.43867 75.1043 7.13008 75.8494 7.13008 76.6266C7.13008 77.4035 7.43887 78.1488 7.98809 78.698L21.302 92.0115C22.4461 93.1555 24.301 93.1555 25.4451 92.0115L31.3859 86.0709C33.4033 87.1145 35.5004 87.9846 37.6566 88.6729V97.0703C37.6566 98.6883 38.9684 100 40.5863 100H59.4141C61.032 100 62.3438 98.6883 62.3438 97.0703V88.6734C64.5002 87.9852 66.5977 87.115 68.615 86.0715L74.5559 92.0121C75.6998 93.1561 77.5549 93.1561 78.699 92.0121L92.0123 78.6986C93.1562 77.5547 93.1562 75.6996 92.0123 74.5555L86.0715 68.6146C87.1152 66.5973 87.9854 64.5002 88.6736 62.3438H97.0703C98.6883 62.3438 100 61.032 100 59.4141V40.5859C100 38.968 98.6885 37.6562 97.0703 37.6562ZM94.1406 56.4842H86.4697C85.1328 56.4842 83.9654 57.3893 83.6324 58.684C82.826 61.8188 81.5764 64.8309 79.9184 67.6363C79.2381 68.7873 79.4234 70.2529 80.3689 71.1984L85.7975 76.627L76.6273 85.7973L71.1988 80.3689C70.2533 79.4236 68.7881 79.2383 67.6369 79.9182C64.8314 81.5756 61.8191 82.8254 58.6836 83.6324C57.3891 83.9656 56.4842 85.1328 56.4842 86.4695V94.1406H43.5158V86.4697C43.5158 85.1328 42.6109 83.9658 41.3164 83.6326C38.1816 82.8258 35.1695 81.5762 32.3639 79.9184C31.2127 79.2379 29.7473 79.4236 28.802 80.3691L23.3734 85.7975L14.2027 76.627L19.6311 71.1984C20.5764 70.2531 20.7619 68.7877 20.0818 67.6367C18.4242 64.8311 17.1744 61.8187 16.3674 58.6836C16.0342 57.3891 14.867 56.4842 13.5303 56.4842H5.85938V43.5156H13.5303C14.867 43.5156 16.0342 42.6107 16.3674 41.3162C17.1746 38.1809 18.4242 35.1686 20.0818 32.3631C20.7619 31.2121 20.5764 29.7467 19.6311 28.8014L14.2027 23.3729L23.3732 14.2027L28.8016 19.6311C29.7469 20.5764 31.2123 20.7619 32.3635 20.0818C35.1691 18.4242 38.1812 17.1746 41.3164 16.3676C42.6109 16.0344 43.5158 14.8672 43.5158 13.5305V5.85938H56.4844V13.5303C56.4844 14.8672 57.3893 16.0342 58.6838 16.3674C61.8193 17.1744 64.8316 18.424 67.6371 20.0816C68.7881 20.7617 70.2535 20.5762 71.199 19.6309L76.6275 14.2025L85.7977 23.3727L80.3693 28.8012C79.4238 29.7467 79.2385 31.2123 79.9187 32.3633C81.5766 35.1686 82.8262 38.1805 83.6328 41.3156C83.966 42.6104 85.1332 43.5154 86.4701 43.5154H94.1406V56.4842Z" fill="#54187D"/>
<path d="M63.3143 33.2299C62.0469 32.224 60.2043 32.4355 59.1981 33.7029L51.0096 44.0172C50.6793 43.9623 50.3424 43.9324 50.0008 43.9324C46.6553 43.9324 43.9328 46.6543 43.932 50.001C43.9328 53.3463 46.6553 56.0676 50.0008 56.0676C51.6215 56.0676 53.1449 55.4367 54.2906 54.291C55.4369 53.1451 56.068 51.6207 56.0676 50.0004C56.0678 49.183 55.9066 48.3902 55.6002 47.6578L63.7869 37.3459C64.7932 36.0789 64.5815 34.2359 63.3143 33.2299Z" fill="#54187D"/>
</svg>
