<svg width="20" height="20" viewBox="0 0 20 20" fill="none" xmlns="http://www.w3.org/2000/svg">
<g clip-path="url(#clip0)">
<path d="M18.8281 13.5651V5.97733L19.7302 5.68398C19.8911 5.63167 20 5.48167 20 5.31249C20 5.14331 19.8911 4.99335 19.7302 4.94101L10.1208 1.81601C10.0423 1.7905 9.95773 1.7905 9.87918 1.81601L0.269805 4.94101C0.108945 4.99335 0 5.14335 0 5.31253C0 5.48171 0.108945 5.63167 0.269805 5.68401L4.14062 6.9428V10C4.14062 10.7922 4.79355 11.5082 5.97914 12.0164C7.05957 12.4794 8.48754 12.7344 10 12.7344C11.5125 12.7344 12.9404 12.4794 14.0209 12.0164C15.2064 11.5082 15.8594 10.7922 15.8594 10V6.9428L18.0469 6.23144V13.5651C17.3737 13.739 16.875 14.3514 16.875 15.0782V15.9297C16.875 16.5269 16.632 17.1125 16.2082 17.5363C16.0965 17.648 16.063 17.816 16.1235 17.962C16.1839 18.108 16.3264 18.2031 16.4844 18.2031H17.2656C18.7734 18.2031 20 16.9765 20 15.4687V15.0781C20 14.3514 19.5013 13.739 18.8281 13.5651ZM10 2.59831L18.3463 5.31253L10 8.02675L1.65371 5.31253L10 2.59831ZM15.0781 10C15.0781 10.9238 12.9926 11.9532 10 11.9532C7.00738 11.9532 4.92188 10.9238 4.92188 10V7.19687L9.87918 8.80901C9.91844 8.82179 9.95922 8.82816 10 8.82816C10.0408 8.82816 10.0815 8.82175 10.1208 8.80901L15.0781 7.19687V10Z" fill="#614970"/>
</g>
<defs>
<clipPath id="clip0">
<rect width="20" height="20" fill="white"/>
</clipPath>
</defs>
</svg>
