<svg width="76" height="76" viewBox="0 0 76 76" fill="none" xmlns="http://www.w3.org/2000/svg">
<g clip-path="url(#clip0)">
<path d="M71.1055 51.3691V22.9149L74.4882 21.8148C75.0916 21.6187 75.5 21.0562 75.5 20.4217C75.5 19.7873 75.0916 19.225 74.4882 19.0287L38.4531 7.30993C38.1585 7.21428 37.8415 7.21428 37.5469 7.30993L1.51177 19.0287C0.908545 19.225 0.5 19.7875 0.5 20.4219C0.5 21.0563 0.908545 21.6187 1.51177 21.815L16.0273 26.5354V38C16.0273 40.9706 18.4758 43.6558 22.9218 45.5613C26.9734 47.2977 32.3283 48.2539 38 48.2539C43.6717 48.2539 49.0266 47.2977 53.0784 45.5613C57.5242 43.6558 59.9727 40.9706 59.9727 38V26.5354L68.1758 23.8678V51.3691C65.6514 52.0212 63.7812 54.3178 63.7812 57.043V60.2362C63.7812 62.476 62.8698 64.6719 61.2806 66.261C60.8618 66.6799 60.7364 67.3099 60.963 67.8573C61.1898 68.4048 61.7239 68.7616 62.3164 68.7616H65.2461C70.9001 68.7616 75.5 64.1617 75.5 58.5077V57.0428C75.5 54.3176 73.6298 52.0212 71.1055 51.3691ZM38 10.2436L69.2986 20.4219L38 30.6002L6.70142 20.4219L38 10.2436ZM57.043 38C57.043 41.4642 49.2223 45.3242 38 45.3242C26.7777 45.3242 18.957 41.4642 18.957 38V27.4882L37.5469 33.5337C37.6941 33.5816 37.8471 33.6055 38 33.6055C38.1529 33.6055 38.3057 33.5815 38.4531 33.5337L57.043 27.4882V38Z" fill="#F49A0D"/>
</g>
<defs>
<clipPath id="clip0">
<rect width="75" height="75" fill="white" transform="translate(0.5 0.5)"/>
</clipPath>
</defs>
</svg>
