<svg width="30" height="30" viewBox="0 0 30 30" fill="none" xmlns="http://www.w3.org/2000/svg">
<path d="M25.4882 13.0189C25.2788 12.4314 24.7221 12.0395 24.0983 12.0406C23.4751 12.0425 22.9205 12.4363 22.7135 13.0242H19.672V11.057H21.6392C21.9108 11.057 22.131 10.8369 22.1311 10.5654C22.1311 10.5653 22.1311 10.5652 22.1311 10.5652V8.50733C22.8993 8.23573 23.302 7.39278 23.0304 6.62446C22.7588 5.8562 21.9158 5.45354 21.1475 5.72514C20.3792 5.99673 19.9766 6.83969 20.2482 7.60801C20.3967 8.02819 20.7273 8.35874 21.1474 8.50733V10.0734H19.672V9.08981C19.6721 8.81827 19.452 8.59807 19.1805 8.598C19.1804 8.598 19.1803 8.598 19.1802 8.598H18.1966V6.04825C18.9649 5.77665 19.3675 4.9337 19.096 4.16538C18.8244 3.39712 17.9814 2.99446 17.2131 3.26606C16.4448 3.53766 16.0422 4.38061 16.3138 5.14893C16.4623 5.56911 16.7928 5.89966 17.213 6.04825V8.59794H15.2458V0.746366C15.2459 0.474829 15.0258 0.254624 14.7543 0.254562C14.7542 0.254562 14.7541 0.254562 14.754 0.254562C8.68694 0.254562 3.93433 4.64716 3.93433 10.2544C3.93433 12.918 4.99165 16.4447 6.69403 19.4575C6.99974 19.9983 7.3986 20.5669 7.82075 21.1692C8.71343 22.4417 9.70687 23.8726 9.81489 25.1182C9.43681 25.3855 9.21556 25.8226 9.22411 26.2855C9.22552 26.618 9.34036 26.9402 9.54962 27.1986C9.25853 27.4858 9.09575 27.8784 9.09827 28.2873C9.09913 29.1018 9.75919 29.7619 10.5737 29.7628H18.9343C19.7544 29.7577 20.415 29.0888 20.4099 28.2688C20.4099 28.2634 20.4098 28.2581 20.4097 28.2527C20.4094 27.8527 20.246 27.4702 19.9571 27.1934C20.1691 26.925 20.2842 26.5929 20.2839 26.2509C20.2824 25.472 19.6498 24.8417 18.8708 24.8432C18.85 24.8433 18.8293 24.8437 18.8085 24.8447H15.2458V15.4831H16.2294V16.9585C16.2294 17.2301 16.4494 17.4503 16.721 17.4503C16.721 17.4503 16.7212 17.4503 16.7212 17.4503H18.1966V18.0328C17.4284 18.3044 17.0258 19.1474 17.2974 19.9156C17.5691 20.6838 18.412 21.0864 19.1802 20.8148C19.9485 20.5432 20.3511 19.7002 20.0794 18.932C19.9309 18.5118 19.6004 18.1813 19.1802 18.0328V16.9585C19.1803 16.687 18.9602 16.4668 18.6887 16.4667C18.6886 16.4667 18.6885 16.4667 18.6884 16.4667H17.213V15.4831H19.1802C19.4518 15.4832 19.672 15.2631 19.672 14.9916C19.672 14.9915 19.672 14.9914 19.672 14.9913V14.0077H22.7135C22.9866 14.7739 23.8291 15.1737 24.5953 14.9006C25.3615 14.6276 25.7612 13.7852 25.4882 13.0189ZM21.6392 6.63067C21.9108 6.63067 22.1311 6.85087 22.1311 7.12247C22.1311 7.39407 21.9108 7.61428 21.6392 7.61428C21.3677 7.61428 21.1474 7.39407 21.1474 7.12247C21.1477 6.851 21.3678 6.63098 21.6392 6.63067ZM8.62614 20.6043C8.21788 20.0222 7.83249 19.4728 7.55032 18.9733C5.95128 16.1431 4.91794 12.7206 4.91794 10.2544C4.91794 5.34983 8.98374 1.47589 14.2622 1.24874V4.68448C14.1316 4.69425 13.9984 4.70612 13.8559 4.72358C13.6471 4.74897 13.4777 4.90438 13.4343 5.1102L13.2844 5.82294C13.1609 5.85227 13.0379 5.8854 12.915 5.92235L12.4249 5.37577C12.2845 5.2187 12.0596 5.16866 11.8658 5.25141C11.3154 5.48876 10.7958 5.79214 10.3186 6.15479C10.1506 6.28143 10.0818 6.50096 10.1474 6.70087L10.3731 7.38866C10.2802 7.47608 10.1897 7.56682 10.102 7.65952L9.41499 7.43378C9.21513 7.36905 8.99616 7.43759 8.8689 7.60475C8.50577 8.0821 8.20214 8.60188 7.96478 9.1527C7.88216 9.34647 7.9322 9.57128 8.08915 9.71175L8.63597 10.2017C8.59921 10.3232 8.56632 10.445 8.5373 10.5671L7.77249 10.7198C7.54257 10.7657 7.37702 10.9676 7.37702 11.202V12.8791C7.37702 13.1136 7.54257 13.3154 7.77255 13.3613L8.53737 13.514C8.56644 13.636 8.59933 13.7578 8.63603 13.8795L8.08903 14.3694C7.93226 14.51 7.88228 14.7347 7.96466 14.9284C8.20208 15.4792 8.50564 15.999 8.86878 16.4764C8.99591 16.6437 9.21501 16.7123 9.41487 16.6473L10.1019 16.4216C10.1898 16.5143 10.2801 16.6051 10.373 16.6925L10.1473 17.3793C10.0818 17.5791 10.1504 17.7985 10.3182 17.9254C10.7955 18.2886 11.3153 18.5922 11.866 18.8297C12.0597 18.912 12.2844 18.862 12.425 18.7054L12.9152 18.1588C13.0379 18.1958 13.161 18.2289 13.2845 18.2582L13.4341 18.9704C13.4773 19.1764 13.6469 19.3321 13.8558 19.3576C13.9985 19.375 14.1318 19.3869 14.2623 19.3967V24.8447H10.7773C10.5762 23.3953 9.54956 21.921 8.62614 20.6043ZM10.3278 12.0405C10.3309 14.2932 12.0237 16.1851 14.2622 16.4377V18.129L14.1808 17.7419C14.1397 17.5458 13.9839 17.3942 13.7868 17.3586C13.4952 17.3056 13.2086 17.2283 12.93 17.1276C12.8765 17.1086 12.8202 17.0989 12.7636 17.0988C12.6238 17.0988 12.4905 17.1583 12.3973 17.2625L11.9349 17.7784C11.6786 17.6503 11.4313 17.5051 11.1945 17.3437L11.408 16.6939C11.4705 16.5035 11.4113 16.2942 11.2584 16.1647C11.0316 15.9727 10.8211 15.7623 10.629 15.5356C10.4991 15.3837 10.2905 15.3249 10.1004 15.3867L9.45089 15.6004C9.28946 15.3636 9.14419 15.1162 9.01601 14.8598L9.53228 14.3973C9.68118 14.2636 9.73442 14.0531 9.66698 13.8647C9.5664 13.586 9.48913 13.2994 9.43595 13.0079C9.40005 12.8092 9.24624 12.6526 9.0481 12.6131L8.36056 12.4757V11.6054L9.0481 11.4681C9.24618 11.4287 9.40005 11.2721 9.43595 11.0733C9.48913 10.7817 9.5664 10.4949 9.66692 10.216C9.73448 10.0275 9.68112 9.81694 9.53198 9.68335L9.01614 9.2213C9.14444 8.96507 9.28964 8.71764 9.45077 8.48071L10.1006 8.69446C10.2906 8.75618 10.4992 8.69747 10.6291 8.54557C10.8217 8.31866 11.0323 8.1078 11.259 7.91495C11.4113 7.78567 11.4702 7.57696 11.4079 7.38712L11.1946 6.73733C11.4314 6.57608 11.6786 6.43087 11.9347 6.3027L12.3972 6.81854C12.531 6.96731 12.7414 7.02061 12.9298 6.95348C13.2085 6.85272 13.4951 6.77544 13.7866 6.72245C13.9837 6.68704 14.1396 6.53563 14.1807 6.33964L14.2622 5.95253V7.64329C12.0237 7.89596 10.3309 9.7878 10.3278 12.0405ZM14.2622 8.63716V15.4438C12.3826 15.1748 11.077 13.4329 11.3461 11.5533C11.5625 10.0414 12.7503 8.85362 14.2622 8.63716ZM19.4261 28.2873C19.4259 28.5588 19.2058 28.7789 18.9343 28.7792H10.5737C10.2971 28.7745 10.0766 28.5465 10.0813 28.2699C10.0814 28.2642 10.0816 28.2585 10.0819 28.2527C10.0821 27.9813 10.3022 27.7612 10.5737 27.7609H18.9343C19.2109 27.7656 19.4314 27.9936 19.4267 28.2702C19.4266 28.2759 19.4264 28.2816 19.4261 28.2873ZM18.8085 25.8283C19.0562 25.8055 19.2756 25.9879 19.2985 26.2356C19.3 26.2522 19.3006 26.2689 19.3003 26.2855C19.3 26.557 19.08 26.7771 18.8085 26.7773H10.6995C10.4229 26.7727 10.2025 26.5447 10.2072 26.2681C10.2073 26.2624 10.2075 26.2566 10.2077 26.2509C10.2182 26.0058 10.4255 25.8155 10.6707 25.8261C10.6803 25.8265 10.6899 25.8273 10.6995 25.8283H18.8085V25.8283ZM18.6884 18.9258C18.96 18.9258 19.1802 19.146 19.1802 19.4176C19.1802 19.6892 18.96 19.9094 18.6884 19.9094C18.4168 19.9094 18.1966 19.6892 18.1966 19.4176C18.1969 19.1461 18.417 18.9261 18.6884 18.9258ZM17.7048 4.17165C17.9764 4.17165 18.1966 4.39186 18.1966 4.66346C18.1966 4.93505 17.9764 5.15526 17.7048 5.15526C17.4332 5.15526 17.213 4.93505 17.213 4.66346C17.2133 4.39198 17.4333 4.17196 17.7048 4.17165ZM18.6884 14.4995H15.2458V9.58149H18.6884V14.4995ZM24.0983 14.0077C23.8267 14.0077 23.6065 13.7875 23.6065 13.5159C23.6065 13.2443 23.8267 13.0241 24.0983 13.0241C24.3699 13.0241 24.5901 13.2443 24.5901 13.5159C24.5898 13.7875 24.3697 14.0075 24.0983 14.0077Z" fill="#F49A0D"/>
<path d="M19.4969 22.7353C19.3235 23.0454 19.17 23.3662 19.0375 23.6958L19.952 24.058C20.0692 23.7672 20.2048 23.4842 20.358 23.2108L19.4969 22.7353Z" fill="#F49A0D"/>
<path d="M20.6033 21.003C20.41 21.2806 20.2172 21.563 20.0328 21.8483L20.8584 22.3824C21.037 22.1067 21.2236 21.8339 21.4107 21.5649L20.6033 21.003Z" fill="#F49A0D"/>
<path d="M21.722 19.3667C21.5561 19.6299 21.3712 19.9022 21.1774 20.1817L21.9853 20.7427C22.1882 20.4507 22.3812 20.1659 22.5544 19.8902L21.722 19.3667Z" fill="#F49A0D"/>
<path d="M22.6451 17.6526C22.5041 17.9475 22.3567 18.239 22.203 18.5272L23.0703 18.9912C23.2312 18.6901 23.3853 18.3851 23.5326 18.0762L22.6451 17.6526Z" fill="#F49A0D"/>
<path d="M23.4133 15.8477C23.299 16.1517 23.1772 16.4562 23.0485 16.7582L23.9538 17.1434C24.0879 16.8279 24.2146 16.5112 24.334 16.1935L23.4133 15.8477Z" fill="#F49A0D"/>
<path d="M25.5734 10.1565L24.5898 10.1641L24.5903 10.2545C24.5903 10.5287 24.5775 10.8202 24.5521 11.1199L25.5323 11.2025C25.5599 10.8755 25.5739 10.5565 25.5739 10.2545L25.5734 10.1565Z" fill="#F49A0D"/>
<path d="M25.3229 8.06287L24.3652 8.2867C24.4371 8.59414 24.4917 8.90539 24.529 9.21891L25.5059 9.10266C25.4641 8.75299 25.403 8.40584 25.3229 8.06287Z" fill="#F49A0D"/>
<path d="M24.6157 6.07542L23.7315 6.50575C23.8698 6.78983 23.9923 7.08135 24.0985 7.37889L25.0249 7.04944C24.9068 6.71741 24.7702 6.39221 24.6157 6.07542Z" fill="#F49A0D"/>
<path d="M23.4908 4.29465L22.7204 4.90651C22.9172 5.15438 23.1008 5.41245 23.2703 5.67975L24.1016 5.15432C23.9134 4.85715 23.7095 4.57018 23.4908 4.29465Z" fill="#F49A0D"/>
<path d="M22.017 2.79373L21.3902 3.5516C21.6347 3.75385 21.8687 3.96853 22.0912 4.19469L22.7924 3.505C22.5462 3.25486 22.2874 3.0175 22.017 2.79373Z" fill="#F49A0D"/>
<path d="M20.2767 1.6214L19.809 2.48685C20.0899 2.63863 20.3649 2.8048 20.6261 2.98056L21.1751 2.1641C20.8876 1.97107 20.5855 1.78855 20.2767 1.6214Z" fill="#F49A0D"/>
<path d="M18.3491 0.805405L18.0513 1.7429C18.3577 1.83991 18.6591 1.95137 18.9475 2.07383L19.3322 1.16897C19.0155 1.03397 18.6846 0.912003 18.3491 0.805405Z" fill="#F49A0D"/>
<path d="M16.3087 0.353928L16.1828 1.32985C16.5 1.37067 16.8175 1.42594 17.1263 1.4946L17.3391 0.534051C17.0017 0.459604 16.655 0.399051 16.3087 0.353928Z" fill="#F49A0D"/>
<path d="M1.96729 26.7947H0.983681V27.7783H1.96729V26.7947Z" fill="#F49A0D"/>
<path d="M1.96729 28.7619H0.983681V29.7455H1.96729V28.7619Z" fill="#F49A0D"/>
<path d="M2.95077 27.7783H1.96717V28.7619H2.95077V27.7783Z" fill="#F49A0D"/>
<path d="M0.983607 27.7783H0V28.7619H0.983607V27.7783Z" fill="#F49A0D"/>
<path d="M29.0164 0.237228H28.0328V1.22084H29.0164V0.237228Z" fill="#F49A0D"/>
<path d="M29.0164 2.20444H28.0328V3.18804H29.0164V2.20444Z" fill="#F49A0D"/>
<path d="M29.9999 1.22086H29.0163V2.20446H29.9999V1.22086Z" fill="#F49A0D"/>
<path d="M28.0328 1.22086H27.0492V2.20446H28.0328V1.22086Z" fill="#F49A0D"/>
</svg>
