<svg width="50" height="50" viewBox="0 0 50 50" fill="none" xmlns="http://www.w3.org/2000/svg">
<g clip-path="url(#clip0)">
<path d="M42.4805 21.6983C42.1315 20.719 41.2036 20.0658 40.1639 20.0676C39.1253 20.0708 38.201 20.7273 37.8559 21.707H32.7869V18.4283H36.0656C36.5181 18.4284 36.8851 18.0616 36.8852 17.609C36.8852 17.6089 36.8852 17.6087 36.8852 17.6086V14.1789C38.1657 13.7262 38.8368 12.3213 38.3841 11.0408C37.9314 9.76035 36.5265 9.08924 35.246 9.54191C33.9655 9.99457 33.2945 11.3995 33.7471 12.68C33.9947 13.3803 34.5456 13.9313 35.2459 14.1789V16.789H32.7869V15.1497C32.787 14.6971 32.4202 14.3301 31.9676 14.33C31.9675 14.33 31.9673 14.33 31.9672 14.33H30.3279V10.0804C31.6083 9.62777 32.2794 8.22285 31.8267 6.94232C31.3741 5.66189 29.9692 4.99078 28.6886 5.44345C27.4082 5.89611 26.7371 7.30103 27.1897 8.58156C27.4373 9.28187 27.9882 9.83279 28.6885 10.0804V14.3299H25.4098V1.24396C25.4099 0.791397 25.0431 0.424388 24.5906 0.424286C24.5905 0.424286 24.5903 0.424286 24.5902 0.424286C14.4784 0.424286 6.55737 7.74529 6.55737 17.0907C6.55737 21.53 8.31957 27.4078 11.1569 32.4291C11.6664 33.3304 12.3311 34.2782 13.0347 35.282C14.5225 37.4028 16.1783 39.7877 16.3583 41.8637C15.7282 42.3091 15.3594 43.0377 15.3737 43.8092C15.376 44.3634 15.5674 44.9003 15.9162 45.331C15.431 45.8097 15.1597 46.464 15.1639 47.1456C15.1654 48.5031 16.2655 49.6032 17.6229 49.6046H31.5574C32.9241 49.5961 34.0252 48.4813 34.0167 47.1147C34.0166 47.1057 34.0165 47.0968 34.0164 47.0879C34.0159 46.4212 33.7434 45.7836 33.262 45.3223C33.6153 44.875 33.8072 44.3215 33.8067 43.7515C33.8042 42.4533 32.7498 41.4029 31.4515 41.4053C31.4169 41.4054 31.3823 41.4062 31.3476 41.4078H25.4098V25.8052H27.0492V28.2642C27.0491 28.7168 27.4159 29.0838 27.8684 29.0839C27.8685 29.0839 27.8687 29.0839 27.8688 29.0839H30.3279V30.0546C29.0474 30.5073 28.3764 31.9123 28.8292 33.1926C29.282 34.4729 30.6869 35.1441 31.9672 34.6913C33.2476 34.2386 33.9186 32.8336 33.4659 31.5533C33.2183 30.853 32.6674 30.3022 31.9672 30.0546V28.2642C31.9673 27.8117 31.6005 27.4447 31.1479 27.4446C31.1478 27.4446 31.1476 27.4446 31.1475 27.4446H28.6885V25.8052H31.9672C32.4198 25.8053 32.7868 25.4385 32.7869 24.986C32.7869 24.9859 32.7869 24.9857 32.7869 24.9856V23.3462H37.856C38.3112 24.6233 39.7153 25.2895 40.9923 24.8344C42.2693 24.3794 42.9355 22.9753 42.4805 21.6983ZM36.0656 11.0511C36.5182 11.0511 36.8852 11.4181 36.8852 11.8708C36.8852 12.3235 36.5182 12.6905 36.0656 12.6905C35.6129 12.6905 35.2459 12.3235 35.2459 11.8708C35.2463 11.4183 35.6131 11.0516 36.0656 11.0511ZM14.377 34.3406C13.6966 33.3704 13.0543 32.4547 12.584 31.6222C9.91895 26.9051 8.19672 21.201 8.19672 17.0907C8.19672 8.91639 14.973 2.45984 23.7705 2.08125V7.80748C23.5529 7.82377 23.3308 7.84355 23.0933 7.87265C22.7454 7.91496 22.4629 8.17398 22.3906 8.51701L22.1408 9.70492C21.935 9.75379 21.7299 9.80902 21.5252 9.8706L20.7083 8.95963C20.4743 8.69785 20.0995 8.61445 19.7765 8.75236C18.8591 9.14795 17.9932 9.65359 17.1978 10.258C16.9178 10.4691 16.8032 10.8349 16.9125 11.1681L17.2887 12.3144C17.1338 12.4601 16.983 12.6114 16.8369 12.7659L15.6918 12.3897C15.3587 12.2818 14.9937 12.396 14.7817 12.6746C14.1764 13.4702 13.6704 14.3365 13.2748 15.2545C13.1371 15.5775 13.2205 15.9522 13.4821 16.1863L14.3934 17.0028C14.3322 17.2053 14.2774 17.4083 14.229 17.6119L12.9543 17.8664C12.5711 17.9428 12.2952 18.2793 12.2952 18.6701V21.4652C12.2952 21.8559 12.5711 22.1924 12.9544 22.2689L14.2291 22.5234C14.2776 22.7266 14.3324 22.9297 14.3935 23.1325L13.4819 23.949C13.2206 24.1833 13.1373 24.5578 13.2746 24.8807C13.6703 25.7987 14.1762 26.6651 14.7815 27.4607C14.9933 27.7395 15.3585 27.8538 15.6916 27.7456L16.8367 27.3694C16.9832 27.5239 17.1336 27.6751 17.2885 27.8208L16.9123 28.9655C16.8031 29.2986 16.9175 29.6642 17.1972 29.8756C17.9926 30.4809 18.8589 30.9871 19.7767 31.3829C20.0997 31.52 20.4741 31.4367 20.7085 31.1756L21.5254 30.2647C21.7299 30.3263 21.9351 30.3816 22.141 30.4303L22.3904 31.6174C22.4624 31.9608 22.745 32.2202 23.0931 32.2626C23.3309 32.2917 23.5531 32.3115 23.7707 32.3278V41.4079H17.9623C17.6271 38.9922 15.9161 36.5349 14.377 34.3406ZM17.2131 20.0675C17.2183 23.822 20.0396 26.9752 23.7705 27.3962V30.215L23.6348 29.5698C23.5664 29.243 23.3067 28.9904 22.9781 28.931C22.4922 28.8426 22.0145 28.7138 21.5501 28.546C21.4611 28.5143 21.3672 28.4982 21.2727 28.498C21.0397 28.498 20.8177 28.5972 20.6624 28.7709L19.8916 29.6306C19.4644 29.4172 19.0522 29.1751 18.6577 28.9063L19.0135 27.8233C19.1177 27.5058 19.0191 27.1571 18.7641 26.9412C18.3862 26.6212 18.0352 26.2705 17.7152 25.8926C17.4987 25.6394 17.151 25.5415 16.8342 25.6445L15.7516 26.0007C15.4826 25.606 15.2405 25.1936 15.0268 24.7664L15.8873 23.9956C16.1354 23.7727 16.2242 23.4219 16.1118 23.1079C15.9442 22.6433 15.8154 22.1657 15.7267 21.6799C15.6669 21.3487 15.4105 21.0877 15.0803 21.0219L13.9344 20.7928V19.3424L15.0803 19.1135C15.4104 19.0478 15.6669 18.7868 15.7267 18.4555C15.8154 17.9695 15.9442 17.4915 16.1117 17.0266C16.2243 16.7125 16.1353 16.3616 15.8868 16.1389L15.027 15.3689C15.2409 14.9418 15.4829 14.5294 15.7514 14.1345L16.8344 14.4908C17.1512 14.5936 17.4988 14.4958 17.7154 14.2426C18.0363 13.8644 18.3874 13.513 18.7652 13.1916C19.0191 12.9761 19.1172 12.6283 19.0133 12.3119L18.6579 11.2289C19.0525 10.9601 19.4645 10.7181 19.8914 10.5045L20.6622 11.3642C20.8851 11.6122 21.2358 11.701 21.5499 11.5891C22.0143 11.4212 22.492 11.2924 22.9779 11.2041C23.3063 11.1451 23.5661 10.8927 23.6346 10.5661L23.7705 9.9209V12.7388C20.0396 13.1599 17.2183 16.313 17.2131 20.0675ZM23.7705 14.3953V25.7398C20.6378 25.2913 18.4618 22.3881 18.9102 19.2554C19.271 16.7358 21.2507 14.756 23.7705 14.3953ZM32.377 47.1456C32.3766 47.5981 32.0098 47.9649 31.5574 47.9653H17.6229C17.162 47.9575 16.7946 47.5775 16.8024 47.1165C16.8026 47.107 16.8029 47.0974 16.8033 47.0879C16.8037 46.6355 17.1705 46.2686 17.6229 46.2682H31.5574C32.0183 46.276 32.3858 46.656 32.378 47.117C32.3779 47.1265 32.3776 47.1361 32.377 47.1456ZM31.3476 43.0472C31.7605 43.0091 32.1262 43.3131 32.1642 43.726C32.1668 43.7537 32.1678 43.7815 32.1673 43.8092C32.1669 44.2617 31.8001 44.6285 31.3476 44.6289H17.8327C17.3717 44.6211 17.0043 44.2412 17.0121 43.7801C17.0123 43.7706 17.0126 43.7611 17.013 43.7515C17.0305 43.3429 17.376 43.0259 17.7846 43.0435C17.8007 43.0443 17.8167 43.0455 17.8327 43.0471H31.3476V43.0472ZM31.1475 31.5429C31.6002 31.5429 31.9672 31.9099 31.9672 32.3626C31.9672 32.8153 31.6002 33.1823 31.1475 33.1823C30.6949 33.1823 30.3279 32.8153 30.3279 32.3626C30.3283 31.9101 30.6951 31.5434 31.1475 31.5429ZM29.5082 6.95277C29.9609 6.95277 30.3279 7.31978 30.3279 7.77244C30.3279 8.2251 29.9609 8.59211 29.5082 8.59211C29.0555 8.59211 28.6885 8.2251 28.6885 7.77244C28.6889 7.31998 29.0557 6.95328 29.5082 6.95277ZM31.1475 24.1659H25.4098V15.9692H31.1475V24.1659ZM40.1639 23.3462C39.7113 23.3462 39.3443 22.9792 39.3443 22.5265C39.3443 22.0739 39.7113 21.7069 40.1639 21.7069C40.6166 21.7069 40.9836 22.0739 40.9836 22.5265C40.9832 22.9791 40.6164 23.3458 40.1639 23.3462Z" fill="#F49A0D"/>
<path d="M32.4946 37.8921C32.2055 38.4089 31.9498 38.9437 31.729 39.493L33.2531 40.0966C33.4484 39.612 33.6744 39.1404 33.9298 38.6846L32.4946 37.8921Z" fill="#F49A0D"/>
<path d="M34.3391 35.005C34.017 35.4677 33.6956 35.9383 33.3882 36.4138L34.7642 37.3039C35.062 36.8445 35.3729 36.3898 35.6847 35.9416L34.3391 35.005Z" fill="#F49A0D"/>
<path d="M36.2036 32.2778C35.927 32.7165 35.6188 33.1704 35.2959 33.6362L36.6423 34.5712C36.9805 34.0845 37.3023 33.6098 37.5909 33.1504L36.2036 32.2778Z" fill="#F49A0D"/>
<path d="M37.7419 29.421C37.507 29.9125 37.2614 30.3983 37.0051 30.8787L38.4507 31.6519C38.7189 31.1501 38.9757 30.6418 39.2212 30.127L37.7419 29.421Z" fill="#F49A0D"/>
<path d="M39.0223 26.4128C38.8318 26.9194 38.6289 27.4269 38.4143 27.9304L39.9232 28.5724C40.1466 28.0465 40.3578 27.5187 40.5568 26.9891L39.0223 26.4128Z" fill="#F49A0D"/>
<path d="M42.6221 16.9274L40.9827 16.9402L40.9835 17.0907C40.9835 17.5478 40.9623 18.0337 40.9199 18.5332L42.5536 18.6709C42.5996 18.1258 42.6229 17.5942 42.6229 17.0907L42.6221 16.9274Z" fill="#F49A0D"/>
<path d="M42.2047 13.4381L40.6086 13.8112C40.7284 14.3236 40.8195 14.8423 40.8816 15.3649L42.5098 15.1711C42.4402 14.5883 42.3384 14.0097 42.2047 13.4381Z" fill="#F49A0D"/>
<path d="M41.0262 10.1257L39.5525 10.8429C39.7829 11.3164 39.9871 11.8022 40.1641 12.2981L41.7081 11.7491C41.5112 11.1957 41.2835 10.6537 41.0262 10.1257Z" fill="#F49A0D"/>
<path d="M39.1513 7.15778L37.8674 8.17755C38.1955 8.59066 38.5014 9.02079 38.7839 9.46628L40.1695 8.59056C39.8557 8.09528 39.5159 7.617 39.1513 7.15778Z" fill="#F49A0D"/>
<path d="M36.6952 4.65625L35.6506 5.91936C36.0581 6.25645 36.4481 6.61424 36.8189 6.99119L37.9875 5.8417C37.5772 5.4248 37.1458 5.0292 36.6952 4.65625Z" fill="#F49A0D"/>
<path d="M33.7943 2.70233L33.0146 4.14475C33.4829 4.39772 33.9412 4.67467 34.3766 4.9676L35.2916 3.60684C34.8124 3.28512 34.3089 2.98092 33.7943 2.70233Z" fill="#F49A0D"/>
<path d="M30.5822 1.34235L30.0859 2.90485C30.5966 3.06653 31.099 3.25228 31.5796 3.45638L32.2208 1.94829C31.6929 1.72329 31.1414 1.52001 30.5822 1.34235Z" fill="#F49A0D"/>
<path d="M27.1809 0.589874L26.9712 2.21641C27.4999 2.28444 28.029 2.37655 28.5437 2.491L28.8983 0.890079C28.336 0.766001 27.7581 0.665079 27.1809 0.589874Z" fill="#F49A0D"/>
<path d="M3.27851 44.6578H1.63916V46.2971H3.27851V44.6578Z" fill="#F49A0D"/>
<path d="M3.27851 47.9365H1.63916V49.5758H3.27851V47.9365Z" fill="#F49A0D"/>
<path d="M4.91766 46.2972H3.27832V47.9365H4.91766V46.2972Z" fill="#F49A0D"/>
<path d="M1.63935 46.2972H0V47.9365H1.63935V46.2972Z" fill="#F49A0D"/>
<path d="M48.361 0.395386H46.7217V2.03473H48.361V0.395386Z" fill="#F49A0D"/>
<path d="M48.361 3.67407H46.7217V5.31342H48.361V3.67407Z" fill="#F49A0D"/>
<path d="M50.0002 2.03479H48.3608V3.67413H50.0002V2.03479Z" fill="#F49A0D"/>
<path d="M46.7211 2.03479H45.0818V3.67413H46.7211V2.03479Z" fill="#F49A0D"/>
</g>
<defs>
<clipPath id="clip0">
<rect width="50" height="50" fill="white"/>
</clipPath>
</defs>
</svg>
