<svg width="50" height="50" viewBox="0 0 50 50" fill="none" xmlns="http://www.w3.org/2000/svg">
<path d="M20.0774 16.4377C19.0496 16.4377 18.535 17.1067 18.5334 18.4449V29.5423C18.5334 30.7309 18.1168 31.3259 17.2838 31.3275C16.9538 31.3111 16.6284 31.2444 16.3188 31.1298C16.0146 31.0192 15.6962 30.9533 15.373 30.9343C14.4596 30.9343 14.002 31.3839 14.0004 32.2829C14.0004 32.9536 14.4588 33.4578 15.373 33.8027C16.0946 34.0708 16.8592 34.2032 17.6288 34.1936C18.1916 34.2182 18.753 34.1194 19.2736 33.9038C19.794 33.6884 20.2612 33.3615 20.642 32.9463C21.3694 32.0779 21.7454 30.9685 21.6962 29.8367V18.4449C21.6978 17.1067 21.1582 16.4377 20.0774 16.4377Z" fill="#2F0D46"/>
<path d="M33.8928 24.8477C33.3042 24.4053 32.0214 23.8013 30.0448 23.0359C29.3772 22.7991 28.7314 22.5043 28.1148 22.1553C27.897 22.0239 27.7182 21.8363 27.5978 21.6123C27.4772 21.3881 27.4192 21.1357 27.4296 20.8815C27.4142 20.5857 27.4694 20.2905 27.5906 20.0205C27.7118 19.7503 27.8958 19.5129 28.127 19.3279C28.6148 18.9545 29.216 18.7603 29.8302 18.7777C30.4362 18.8123 31.0306 18.9579 31.584 19.2073C32.059 19.4313 32.5676 19.5763 33.0894 19.6367C33.4604 19.6495 33.8226 19.5229 34.105 19.2819C34.2408 19.1619 34.3476 19.0129 34.4178 18.8457C34.488 18.6787 34.5196 18.4979 34.5104 18.3169C34.5008 18.0585 34.429 17.8061 34.3008 17.5813C34.1728 17.3567 33.9922 17.1661 33.7746 17.0263C32.8916 16.3427 31.625 16.0019 29.9748 16.0035C28.5214 15.9553 27.095 16.4045 25.9316 17.2773C25.3566 17.7021 24.8932 18.2601 24.5814 18.9035C24.2696 19.5467 24.1188 20.2561 24.1416 20.9707C24.1128 21.7347 24.297 22.4917 24.6736 23.1571C25.0502 23.8225 25.6044 24.3703 26.2742 24.7391L30.245 26.3555C31.6668 26.9409 32.3778 27.7563 32.3778 28.8017C32.3812 29.1481 32.3122 29.4915 32.1752 29.8099C32.038 30.1281 31.8358 30.4141 31.5816 30.6497C31.3362 30.8965 31.044 31.0917 30.7222 31.2239C30.4002 31.3561 30.055 31.4225 29.707 31.4193C29.0524 31.4211 28.4014 31.3219 27.777 31.1249C27.7434 31.1105 27.3356 30.9537 26.5516 30.6593C26.1942 30.4925 25.8148 30.3771 25.425 30.3167C25.0398 30.3015 24.6632 30.4325 24.3706 30.6835C24.231 30.8097 24.121 30.9655 24.0488 31.1395C23.9766 31.3135 23.944 31.5013 23.9534 31.6895C23.9534 32.5563 24.6642 33.2261 26.086 33.6991C27.1186 34.0569 28.204 34.2387 29.297 34.2371C31.1112 34.2371 32.6062 33.7481 33.7818 32.7703C34.4014 32.2577 34.8942 31.6089 35.2216 30.8745C35.5488 30.1399 35.7018 29.3397 35.6684 28.5363C35.6986 27.8229 35.5522 27.1131 35.2424 26.4695C34.9328 25.8261 34.4692 25.2691 33.8928 24.8477Z" fill="#2F0D46"/>
</svg>
