<svg width="76" height="76" viewBox="0 0 76 76" fill="none" xmlns="http://www.w3.org/2000/svg">
<g clip-path="url(#clip0)">
<path d="M74.0352 3.84277H51.7013C50.8923 3.84277 50.2365 4.49873 50.2365 5.30762C50.2365 6.1165 50.8923 6.77246 51.7013 6.77246H72.5704V48.1558H47.5095L50.4867 44.9229H67.9664C68.7754 44.9229 69.4312 44.2669 69.4312 43.458V11.4715C69.4312 10.6626 68.7754 10.0067 67.9664 10.0067H22.9136C22.1046 10.0067 21.4488 10.6626 21.4488 11.4715V20.7515C20.3163 20.7242 19.174 20.8143 18.0621 21.0302V6.77246H38.8013C39.6104 6.77246 40.2662 6.1165 40.2662 5.30762C40.2662 4.49873 39.6104 3.84277 38.8013 3.84277H16.5972C15.7882 3.84277 15.1324 4.49873 15.1324 5.30762V21.9625C13.4251 22.741 12.1851 23.7786 11.3219 24.7224C9.50913 26.7044 8.92026 28.7245 8.89609 28.8094C8.63535 29.7264 9.35137 30.6749 10.3051 30.6749H11.1462C11.0794 32.7939 11.5954 34.9049 11.7786 35.5811V37.1724C11.7786 37.1914 11.7789 37.2103 11.7796 37.2293C11.9081 40.532 13.5723 43.3896 16.046 45.0837L15.544 48.8924L8.87676 50.4931C8.84702 50.5002 8.81773 50.5083 8.78843 50.5172C4.27964 51.9027 1.07734 55.9977 0.819971 60.707C0.819385 60.718 0.818946 60.729 0.818506 60.7401L0.500635 70.6454C0.487891 71.0417 0.636426 71.4264 0.912403 71.7113C1.18838 71.9962 1.56821 72.1572 1.96489 72.1572H32.4659C33.2749 72.1572 33.9307 71.5013 33.9307 70.6924V65.5376C33.9307 64.4923 34.2988 63.4741 34.9669 62.6703L42.6317 53.4522L44.8113 51.0854H74.0352C74.8442 51.0854 75.5 50.4295 75.5 49.6206V5.30762C75.5 4.49873 74.8442 3.84277 74.0352 3.84277ZM41.4977 50.359L38.6062 47.4034L47.251 39.8836C47.5034 39.6642 47.6704 39.3673 47.73 39.0447C47.8083 38.6223 47.725 38.2473 48.0638 37.8989L49.693 36.2272C50.1096 35.7994 50.8258 35.7891 51.2556 36.2072L52.9272 37.8364C53.3532 38.2514 53.363 38.9727 52.9473 39.3991L51.3177 41.071C51.0965 41.2981 50.7848 41.416 50.4692 41.4006C50.0324 41.3766 49.6095 41.5499 49.3138 41.8708L41.4977 50.359ZM27.1921 48.8413L26.5297 45.1524C26.6414 45.0787 26.7512 45.0015 26.8602 44.9229H36.9936L32.5382 48.5457C32.2961 48.7363 31.9926 48.8413 31.6836 48.8413H27.1921ZM24.3785 12.9364H66.5015V41.993H54.5103L55.046 41.4433C55.3117 41.1705 55.5333 40.8664 55.7096 40.5403C56.556 38.9743 56.2467 36.9796 54.9719 35.7375L53.2999 34.1085C51.7293 32.5789 49.1337 32.6025 47.5942 34.1826L45.965 35.8546C45.3785 36.4566 44.992 37.2428 44.8672 38.0735L40.3614 41.993H29.5521C30.4145 40.5412 30.8768 38.8609 30.8768 37.1724V35.1326C33.3637 29.33 30.5645 22.8146 24.3785 21.1593V12.9364ZM19.403 23.7831C20.1688 23.687 20.9463 23.6526 21.7171 23.6949C25.7434 23.9239 29.0967 26.8379 28.89 31.0413C27.8298 30.0049 26.3708 29.4075 24.8878 29.4075H21.9606C20.7363 29.4075 20.3909 27.9469 20.3581 27.7931C20.1247 26.5843 18.5187 26.1988 17.7628 27.1722L14.0991 31.8896C14.0389 31.0815 14.0538 30.2511 14.2214 29.552C14.46 28.5572 13.6302 27.706 12.6593 27.7455C13.6896 26.2256 15.7091 24.2573 19.403 23.7831ZM14.7082 35.8813L18.6615 30.7909C19.3822 31.6481 20.4528 32.3371 21.9605 32.3371H24.8876C25.9872 32.3371 26.9876 32.9855 27.4366 33.9891L27.9465 35.1292V37.1724C27.9465 40.7281 24.88 43.7918 21.3273 43.7918C17.6942 43.7918 14.8586 40.6858 14.708 37.1428V35.8813H14.7082ZM20.8639 46.7098C21.843 46.7564 22.8292 46.6508 23.7758 46.3953L24.39 49.8157C22.7307 51.1175 20.0151 51.1694 18.3796 49.7996L18.8292 46.3881C19.4926 46.5712 20.1766 46.6761 20.8639 46.7098ZM32.7143 60.7974C31.6095 62.1261 31.001 63.8095 31.001 65.5376V69.2274H11.1839V62.6057C11.1839 61.7968 10.5281 61.1409 9.71904 61.1409C8.91001 61.1409 8.2542 61.7968 8.2542 62.6057V69.2274H3.47749L3.74629 60.8511C3.93965 57.4375 6.34522 54.3529 9.60713 53.3305L16.1043 51.7708C17.4856 52.9074 19.19 53.6442 20.9866 53.733C22.9557 53.8303 25.1564 53.1324 26.6047 51.7708H31.6836C32.6443 51.7609 33.5916 51.4443 34.3494 50.849L36.3446 49.2812L39.5583 52.5663L32.7143 60.7974Z" fill="#F49A0D"/>
<path d="M46.657 4.49448C45.9365 3.39365 44.1881 3.8063 43.9916 5.09272C43.7898 6.41475 45.4077 7.2812 46.4049 6.40859C46.951 5.93076 47.0594 5.09741 46.657 4.49448Z" fill="#F49A0D"/>
<path d="M31.4354 20.8641H61.0855C61.8945 20.8641 62.5503 20.2081 62.5503 19.3993C62.5503 18.5904 61.8945 17.9344 61.0855 17.9344H31.4354C30.6264 17.9344 29.9706 18.5904 29.9706 19.3993C29.9706 20.2081 30.6264 20.8641 31.4354 20.8641Z" fill="#F49A0D"/>
<path d="M61.0855 25.0537H48.0652C47.2562 25.0537 46.6004 25.7097 46.6004 26.5186C46.6004 27.3274 47.2562 27.9834 48.0652 27.9834H61.0855C61.8945 27.9834 62.5504 27.3274 62.5504 26.5186C62.5504 25.7097 61.8945 25.0537 61.0855 25.0537Z" fill="#F49A0D"/>
</g>
<defs>
<clipPath id="clip0">
<rect width="75" height="75" fill="white" transform="translate(0.5 0.5)"/>
</clipPath>
</defs>
</svg>
