<svg width="20" height="20" viewBox="0 0 20 20" fill="none" xmlns="http://www.w3.org/2000/svg">
<path d="M7.81251 17.0044V17.5C7.81251 17.5829 7.84544 17.6624 7.90404 17.721C7.96265 17.7796 8.04213 17.8125 8.12501 17.8125H15.3125C15.3954 17.8125 15.4749 17.7796 15.5335 17.721C15.5921 17.6624 15.625 17.5829 15.625 17.5V15C15.625 14.9171 15.5921 14.8376 15.5335 14.779C15.4749 14.7204 15.3954 14.6875 15.3125 14.6875H8.12501C8.04213 14.6875 7.96265 14.7204 7.90404 14.779C7.84544 14.8376 7.81251 14.9171 7.81251 15V15.4956L7.27903 16.029C7.25001 16.058 7.227 16.0925 7.21129 16.1304C7.19558 16.1683 7.1875 16.209 7.1875 16.25C7.1875 16.291 7.19558 16.3317 7.21129 16.3696C7.227 16.4075 7.25001 16.442 7.27903 16.471L7.81251 17.0044ZM8.34599 15.846C8.37501 15.817 8.39802 15.7825 8.41373 15.7446C8.42943 15.7067 8.43751 15.666 8.43751 15.625V15.3125H15V17.1875H8.43751V16.875C8.43751 16.834 8.42943 16.7933 8.41373 16.7554C8.39802 16.7175 8.37501 16.683 8.34599 16.654L7.94196 16.25L8.34599 15.846Z" fill="#614970"/>
<path d="M7.81251 12.9419V13.4375C7.81251 13.5204 7.84544 13.5999 7.90404 13.6585C7.96265 13.7171 8.04213 13.75 8.12501 13.75H15.3125C15.3954 13.75 15.4749 13.7171 15.5335 13.6585C15.5921 13.5999 15.625 13.5204 15.625 13.4375V10.9375C15.625 10.8546 15.5921 10.7751 15.5335 10.7165C15.4749 10.6579 15.3954 10.625 15.3125 10.625H8.12501C8.04213 10.625 7.96265 10.6579 7.90404 10.7165C7.84544 10.7751 7.81251 10.8546 7.81251 10.9375V11.4331L7.27903 11.9665C7.25001 11.9955 7.227 12.03 7.21129 12.0679C7.19558 12.1058 7.1875 12.1465 7.1875 12.1875C7.1875 12.2285 7.19558 12.2692 7.21129 12.3071C7.227 12.345 7.25001 12.3795 7.27903 12.4085L7.81251 12.9419ZM8.34599 11.7835C8.37501 11.7545 8.39802 11.72 8.41373 11.6821C8.42943 11.6442 8.43751 11.6035 8.43751 11.5625V11.25H15V13.125H8.43751V12.8125C8.43751 12.7715 8.42943 12.7308 8.41373 12.6929C8.39802 12.655 8.37501 12.6205 8.34599 12.5915L7.94196 12.1875L8.34599 11.7835Z" fill="#614970"/>
<path d="M7.81251 8.87945V9.375C7.81251 9.45788 7.84544 9.53737 7.90404 9.59597C7.96265 9.65458 8.04213 9.6875 8.12501 9.6875H15.3125C15.3954 9.6875 15.4749 9.65458 15.5335 9.59597C15.5921 9.53737 15.625 9.45788 15.625 9.375V6.875C15.625 6.79212 15.5921 6.71263 15.5335 6.65403C15.4749 6.59542 15.3954 6.5625 15.3125 6.5625H8.12501C8.04213 6.5625 7.96265 6.59542 7.90404 6.65403C7.84544 6.71263 7.81251 6.79212 7.81251 6.875V7.37055L7.27903 7.90402C7.25001 7.93304 7.227 7.96749 7.21129 8.00541C7.19558 8.04332 7.1875 8.08396 7.1875 8.125C7.1875 8.16604 7.19558 8.20668 7.21129 8.24459C7.227 8.28251 7.25001 8.31696 7.27903 8.34598L7.81251 8.87945ZM8.34599 7.72098C8.37501 7.69196 8.39802 7.65751 8.41373 7.61959C8.42943 7.58168 8.43751 7.54104 8.43751 7.5V7.1875H15V9.0625H8.43751V8.75C8.43751 8.70896 8.42943 8.66832 8.41373 8.63041C8.39802 8.59249 8.37501 8.55804 8.34599 8.52902L7.94196 8.125L8.34599 7.72098Z" fill="#614970"/>
<path d="M10.625 15.9375H14.375V16.5625H10.625V15.9375Z" fill="#614970"/>
<path d="M9.0625 15.9375H10V16.5625H9.0625V15.9375Z" fill="#614970"/>
<path d="M10.625 11.875H14.375V12.5H10.625V11.875Z" fill="#614970"/>
<path d="M9.0625 11.875H10V12.5H9.0625V11.875Z" fill="#614970"/>
<path d="M10.625 7.8125H14.375V8.4375H10.625V7.8125Z" fill="#614970"/>
<path d="M9.0625 7.8125H10V8.4375H9.0625V7.8125Z" fill="#614970"/>
<path d="M4.375 16.25C4.37525 16.4438 4.43545 16.6328 4.54735 16.791C4.65925 16.9492 4.81736 17.0689 5 17.1337V17.8125H5.625V17.1337C5.80769 17.0691 5.96585 16.9494 6.0777 16.7911C6.18956 16.6328 6.24962 16.4438 6.24962 16.25C6.24962 16.0562 6.18956 15.8672 6.0777 15.7089C5.96585 15.5506 5.80769 15.4309 5.625 15.3663V13.0712C5.80769 13.0066 5.96585 12.8869 6.0777 12.7286C6.18956 12.5703 6.24962 12.3813 6.24962 12.1875C6.24962 11.9937 6.18956 11.8047 6.0777 11.6464C5.96585 11.4881 5.80769 11.3684 5.625 11.3038V9.00875C5.80769 8.94407 5.96585 8.82436 6.0777 8.6661C6.18956 8.50784 6.24962 8.3188 6.24962 8.125C6.24962 7.9312 6.18956 7.74216 6.0777 7.5839C5.96585 7.42564 5.80769 7.30593 5.625 7.24125V6.5625H5V7.24125C4.81731 7.30593 4.65915 7.42564 4.5473 7.5839C4.43544 7.74216 4.37538 7.9312 4.37538 8.125C4.37538 8.3188 4.43544 8.50784 4.5473 8.6661C4.65915 8.82436 4.81731 8.94407 5 9.00875V11.3038C4.81731 11.3684 4.65915 11.4881 4.5473 11.6464C4.43544 11.8047 4.37538 11.9937 4.37538 12.1875C4.37538 12.3813 4.43544 12.5703 4.5473 12.7286C4.65915 12.8869 4.81731 13.0066 5 13.0712V15.3663C4.81736 15.4311 4.65925 15.5508 4.54735 15.709C4.43545 15.8672 4.37525 16.0562 4.375 16.25ZM5.3125 16.5625C5.25069 16.5625 5.19027 16.5442 5.13888 16.5098C5.08749 16.4755 5.04744 16.4267 5.02379 16.3696C5.00014 16.3125 4.99395 16.2497 5.006 16.189C5.01806 16.1284 5.04783 16.0727 5.09153 16.029C5.13523 15.9853 5.19091 15.9556 5.25153 15.9435C5.31215 15.9314 5.37499 15.9376 5.43209 15.9613C5.48919 15.9849 5.538 16.025 5.57233 16.0764C5.60667 16.1278 5.625 16.1882 5.625 16.25C5.62491 16.3329 5.59195 16.4123 5.53337 16.4709C5.47478 16.5295 5.39535 16.5624 5.3125 16.5625ZM5.3125 7.8125C5.37431 7.8125 5.43473 7.83083 5.48612 7.86517C5.53751 7.8995 5.57756 7.94831 5.60121 8.00541C5.62486 8.06251 5.63105 8.12535 5.619 8.18597C5.60694 8.24659 5.57718 8.30227 5.53347 8.34597C5.48977 8.38968 5.43409 8.41944 5.37347 8.4315C5.31285 8.44355 5.25001 8.43736 5.19291 8.41371C5.13581 8.39006 5.087 8.35001 5.05267 8.29862C5.01833 8.24723 5 8.18681 5 8.125C5.00009 8.04215 5.03305 7.96272 5.09163 7.90413C5.15022 7.84555 5.22965 7.81259 5.3125 7.8125ZM5.3125 11.875C5.37431 11.875 5.43473 11.8933 5.48612 11.9277C5.53751 11.962 5.57756 12.0108 5.60121 12.0679C5.62486 12.125 5.63105 12.1878 5.619 12.2485C5.60694 12.3091 5.57718 12.3648 5.53347 12.4085C5.48977 12.4522 5.43409 12.4819 5.37347 12.494C5.31285 12.5061 5.25001 12.4999 5.19291 12.4762C5.13581 12.4526 5.087 12.4125 5.05267 12.3611C5.01833 12.3097 5 12.2493 5 12.1875C5.00009 12.1046 5.03305 12.0252 5.09163 11.9666C5.15022 11.908 5.22965 11.8751 5.3125 11.875Z" fill="#614970"/>
<path d="M18.4375 1.875H17.5V1.5625C17.5 1.31386 17.4012 1.0754 17.2254 0.899587C17.0496 0.723772 16.8111 0.625 16.5625 0.625C16.3139 0.625 16.0754 0.723772 15.8996 0.899587C15.7238 1.0754 15.625 1.31386 15.625 1.5625V1.875H13.125V1.5625C13.125 1.31386 13.0262 1.0754 12.8504 0.899587C12.6746 0.723772 12.4361 0.625 12.1875 0.625C11.9389 0.625 11.7004 0.723772 11.5246 0.899587C11.3488 1.0754 11.25 1.31386 11.25 1.5625V1.875H8.75V1.5625C8.75 1.31386 8.65123 1.0754 8.47541 0.899587C8.2996 0.723772 8.06114 0.625 7.8125 0.625C7.56386 0.625 7.3254 0.723772 7.14959 0.899587C6.97377 1.0754 6.875 1.31386 6.875 1.5625V1.875H4.375V1.5625C4.375 1.31386 4.27623 1.0754 4.10041 0.899587C3.9246 0.723772 3.68614 0.625 3.4375 0.625C3.18886 0.625 2.9504 0.723772 2.77459 0.899587C2.59877 1.0754 2.5 1.31386 2.5 1.5625V1.875H1.5625C1.31395 1.87529 1.07566 1.97415 0.899907 2.14991C0.724154 2.32566 0.625289 2.56395 0.625 2.8125V18.4375C0.625289 18.6861 0.724154 18.9243 0.899907 19.1001C1.07566 19.2758 1.31395 19.3747 1.5625 19.375H18.4375C18.6861 19.3747 18.9243 19.2758 19.1001 19.1001C19.2758 18.9243 19.3747 18.6861 19.375 18.4375V2.8125C19.3747 2.56395 19.2758 2.32566 19.1001 2.14991C18.9243 1.97415 18.6861 1.87529 18.4375 1.875ZM16.25 1.5625C16.25 1.47962 16.2829 1.40013 16.3415 1.34153C16.4001 1.28292 16.4796 1.25 16.5625 1.25C16.6454 1.25 16.7249 1.28292 16.7835 1.34153C16.8421 1.40013 16.875 1.47962 16.875 1.5625V2.8125C16.875 2.89538 16.8421 2.97487 16.7835 3.03347C16.7249 3.09208 16.6454 3.125 16.5625 3.125C16.4796 3.125 16.4001 3.09208 16.3415 3.03347C16.2829 2.97487 16.25 2.89538 16.25 2.8125V1.5625ZM11.875 1.5625C11.875 1.47962 11.9079 1.40013 11.9665 1.34153C12.0251 1.28292 12.1046 1.25 12.1875 1.25C12.2704 1.25 12.3499 1.28292 12.4085 1.34153C12.4671 1.40013 12.5 1.47962 12.5 1.5625V2.8125C12.5 2.89538 12.4671 2.97487 12.4085 3.03347C12.3499 3.09208 12.2704 3.125 12.1875 3.125C12.1046 3.125 12.0251 3.09208 11.9665 3.03347C11.9079 2.97487 11.875 2.89538 11.875 2.8125V1.5625ZM7.5 1.5625C7.5 1.47962 7.53292 1.40013 7.59153 1.34153C7.65013 1.28292 7.72962 1.25 7.8125 1.25C7.89538 1.25 7.97487 1.28292 8.03347 1.34153C8.09208 1.40013 8.125 1.47962 8.125 1.5625V2.8125C8.125 2.89538 8.09208 2.97487 8.03347 3.03347C7.97487 3.09208 7.89538 3.125 7.8125 3.125C7.72962 3.125 7.65013 3.09208 7.59153 3.03347C7.53292 2.97487 7.5 2.89538 7.5 2.8125V1.5625ZM3.125 1.5625C3.125 1.47962 3.15792 1.40013 3.21653 1.34153C3.27513 1.28292 3.35462 1.25 3.4375 1.25C3.52038 1.25 3.59987 1.28292 3.65847 1.34153C3.71708 1.40013 3.75 1.47962 3.75 1.5625V2.8125C3.75 2.89538 3.71708 2.97487 3.65847 3.03347C3.59987 3.09208 3.52038 3.125 3.4375 3.125C3.35462 3.125 3.27513 3.09208 3.21653 3.03347C3.15792 2.97487 3.125 2.89538 3.125 2.8125V1.5625ZM18.75 18.4375C18.7499 18.5204 18.717 18.5998 18.6584 18.6584C18.5998 18.717 18.5204 18.7499 18.4375 18.75H1.5625C1.47965 18.7499 1.40022 18.717 1.34163 18.6584C1.28305 18.5998 1.25009 18.5204 1.25 18.4375V5.625H18.75V18.4375ZM18.75 5H1.25V2.8125C1.25009 2.72965 1.28305 2.65022 1.34163 2.59163C1.40022 2.53305 1.47965 2.50009 1.5625 2.5H2.5V2.8125C2.5 3.06114 2.59877 3.2996 2.77459 3.47541C2.9504 3.65123 3.18886 3.75 3.4375 3.75C3.68614 3.75 3.9246 3.65123 4.10041 3.47541C4.27623 3.2996 4.375 3.06114 4.375 2.8125V2.5H6.875V2.8125C6.875 3.06114 6.97377 3.2996 7.14959 3.47541C7.3254 3.65123 7.56386 3.75 7.8125 3.75C8.06114 3.75 8.2996 3.65123 8.47541 3.47541C8.65123 3.2996 8.75 3.06114 8.75 2.8125V2.5H11.25V2.8125C11.25 3.06114 11.3488 3.2996 11.5246 3.47541C11.7004 3.65123 11.9389 3.75 12.1875 3.75C12.4361 3.75 12.6746 3.65123 12.8504 3.47541C13.0262 3.2996 13.125 3.06114 13.125 2.8125V2.5H15.625V2.8125C15.625 3.06114 15.7238 3.2996 15.8996 3.47541C16.0754 3.65123 16.3139 3.75 16.5625 3.75C16.8111 3.75 17.0496 3.65123 17.2254 3.47541C17.4012 3.2996 17.5 3.06114 17.5 2.8125V2.5H18.4375C18.5204 2.50009 18.5998 2.53305 18.6584 2.59163C18.717 2.65022 18.7499 2.72965 18.75 2.8125V5Z" fill="#614970"/>
</svg>
