<svg width="20" height="18" viewBox="0 0 20 18" fill="none" xmlns="http://www.w3.org/2000/svg">
<path d="M18.8281 12.5651V4.97733L19.7302 4.68398C19.8911 4.63167 20 4.48167 20 4.31249C20 4.14331 19.8911 3.99335 19.7302 3.94101L10.1208 0.816006C10.0423 0.790498 9.95773 0.790498 9.87918 0.816006L0.269805 3.94101C0.108945 3.99335 0 4.14335 0 4.31253C0 4.48171 0.108945 4.63167 0.269805 4.68401L4.14062 5.9428V9.00003C4.14062 9.79218 4.79355 10.5082 5.97914 11.0164C7.05957 11.4794 8.48754 11.7344 10 11.7344C11.5125 11.7344 12.9404 11.4794 14.0209 11.0164C15.2064 10.5082 15.8594 9.79218 15.8594 9.00003V5.9428L18.0469 5.23144V12.5651C17.3737 12.739 16.875 13.3514 16.875 14.0782V14.9297C16.875 15.5269 16.632 16.1125 16.2082 16.5363C16.0965 16.648 16.063 16.816 16.1235 16.962C16.1839 17.108 16.3264 17.2031 16.4844 17.2031H17.2656C18.7734 17.2031 20 15.9765 20 14.4687V14.0781C20 13.3514 19.5013 12.739 18.8281 12.5651ZM10 1.59831L18.3463 4.31253L10 7.02675L1.65371 4.31253L10 1.59831ZM15.0781 9.00003C15.0781 9.92382 12.9926 10.9532 10 10.9532C7.00738 10.9532 4.92188 9.92382 4.92188 9.00003V6.19687L9.87918 7.80901C9.91844 7.82179 9.95922 7.82816 10 7.82816C10.0408 7.82816 10.0815 7.82175 10.1208 7.80901L15.0781 6.19687V9.00003Z" fill="#614970"/>
</svg>
