<svg width="100" height="64" viewBox="0 0 100 64" fill="none" xmlns="http://www.w3.org/2000/svg">
<path d="M86.486 28.1911C89.4143 26.1334 91.3534 22.7103 91.3534 18.852C91.3534 12.5402 86.2485 7.4353 79.9367 7.4353C73.6249 7.4353 68.52 12.5402 68.52 18.852C68.52 22.7103 70.4393 26.1334 73.3874 28.1911C70.8746 29.0617 68.5793 30.4072 66.6403 32.1484C63.9691 29.873 60.8231 28.1318 57.3803 27.1029C61.5552 24.5702 64.3649 19.96 64.3649 14.7167C64.3649 6.72299 57.8947 0.252869 49.9011 0.252869C41.9074 0.252869 35.4373 6.74278 35.4373 14.7167C35.4373 19.96 38.2271 24.5702 42.4218 27.1029C39.0186 28.1318 35.9122 29.8532 33.2608 32.089C31.3217 30.3874 29.0661 29.0617 26.5928 28.2109C29.5212 26.1531 31.4602 22.7301 31.4602 18.8718C31.4602 12.56 26.3554 7.45508 20.0435 7.45508C13.7317 7.45508 8.62683 12.56 8.62683 18.8718C8.62683 22.7301 10.5461 26.1531 13.4943 28.2109C5.6391 30.9216 0 38.3811 0 47.1464V48.4523C0 48.4919 0.0395726 48.5315 0.0791452 48.5315H24.2778C24.1393 49.6197 24.0602 50.7475 24.0602 51.8753V53.2208C24.0602 59.038 28.7693 63.7471 34.5865 63.7471H65.2552C71.0724 63.7471 75.7816 59.038 75.7816 53.2208V51.8753C75.7816 50.7475 75.7024 49.6197 75.5639 48.5315H99.9209C99.9604 48.5315 100 48.4919 100 48.4523V47.1464C99.9604 38.3613 94.3411 30.9019 86.486 28.1911ZM71.6858 18.8322C71.6858 14.2814 75.3858 10.5813 79.9367 10.5813C84.4875 10.5813 88.1876 14.2814 88.1876 18.8322C88.1876 23.3237 84.5667 26.9842 80.095 27.0831C80.0356 27.0831 79.996 27.0831 79.9367 27.0831C79.8773 27.0831 79.8378 27.0831 79.7784 27.0831C75.2869 27.004 71.6858 23.3435 71.6858 18.8322ZM38.5635 14.7167C38.5635 8.48397 43.6288 3.41868 49.8615 3.41868C56.0942 3.41868 61.1595 8.48397 61.1595 14.7167C61.1595 20.7317 56.4306 25.6585 50.5144 25.9949C50.2968 25.9949 50.0791 25.9949 49.8615 25.9949C49.6438 25.9949 49.4262 25.9949 49.2085 25.9949C43.2924 25.6585 38.5635 20.7317 38.5635 14.7167ZM11.7333 18.8322C11.7333 14.2814 15.4333 10.5813 19.9842 10.5813C24.535 10.5813 28.2351 14.2814 28.2351 18.8322C28.2351 23.3237 24.6142 26.9842 20.1425 27.0831C20.0831 27.0831 20.0435 27.0831 19.9842 27.0831C19.9248 27.0831 19.8852 27.0831 19.8259 27.0831C15.3542 27.004 11.7333 23.3435 11.7333 18.8322ZM24.8318 45.3459H3.20538C4.09577 36.9169 11.2188 30.3083 19.8655 30.2489C19.905 30.2489 19.9446 30.2489 19.9842 30.2489C20.0237 30.2489 20.0633 30.2489 20.1029 30.2489C24.2184 30.2687 27.9778 31.7922 30.8864 34.2655C28.0372 37.3522 25.9201 41.1512 24.8318 45.3459ZM72.5762 53.2208C72.5762 57.277 69.2719 60.5813 65.2157 60.5813H34.5469C30.4907 60.5813 27.1864 57.277 27.1864 53.2208V51.8753C27.1864 39.5881 37.0004 29.5366 49.2085 29.1805C49.4262 29.2002 49.6636 29.2002 49.8813 29.2002C50.0989 29.2002 50.3364 29.2002 50.554 29.1805C62.7622 29.5366 72.5762 39.5881 72.5762 51.8753V53.2208ZM74.9308 45.3459C73.8425 41.171 71.7649 37.4313 68.9355 34.3447C71.8639 31.812 75.6628 30.2885 79.818 30.2489C79.8575 30.2489 79.8971 30.2489 79.9367 30.2489C79.9763 30.2489 80.0158 30.2489 80.0554 30.2489C88.702 30.3083 95.8251 36.9169 96.7155 45.3459H74.9308Z" fill="#54187D"/>
</svg>
