<svg width="30" height="30" viewBox="0 0 30 30" fill="none" xmlns="http://www.w3.org/2000/svg">
<g clip-path="url(#clip0)">
<path d="M25.3631 4.26304C19.478 -1.42102 10.1477 -1.42102 4.26253 4.26304C-1.56426 10.296 -1.39715 19.9101 4.63578 25.7369C10.5209 31.421 19.8512 31.421 25.7364 25.7369C31.5632 19.704 31.3961 10.0898 25.3631 4.26304ZM25.0226 25.0231L25.0176 25.0181C19.4797 30.5509 10.5051 30.5468 4.97226 25.0089C-0.560583 19.4711 -0.556489 10.4966 4.9814 4.9637C10.5193 -0.569142 19.4939 -0.565048 25.0267 4.97278C27.6843 7.63281 29.1761 11.2398 29.1736 15C29.1739 18.7593 27.6807 22.3648 25.0226 25.0231Z" fill="white"/>
<path d="M23.5297 19.3231L20.6848 16.4882C20.0391 15.841 18.991 15.8398 18.3438 16.4855C18.3428 16.4864 18.3419 16.4873 18.341 16.4882L16.711 18.1182C16.5876 18.2419 16.3933 18.259 16.2503 18.1588C15.3582 17.5353 14.523 16.8339 13.7547 16.063C13.0665 15.3764 12.4335 14.6368 11.8614 13.8508C11.7577 13.7096 11.7728 13.5139 11.8968 13.3902L13.5673 11.7196C14.2123 11.0734 14.2123 10.0271 13.5673 9.38091L10.7224 6.53598C10.0668 5.90923 9.03421 5.90923 8.37864 6.53598L7.47758 7.43703C6.11678 8.78252 5.63099 10.7804 6.22214 12.6005C6.66326 13.9321 7.2868 15.1961 8.0749 16.3566C8.7844 17.4205 9.59837 18.4108 10.5048 19.3129C11.4902 20.3054 12.5817 21.1864 13.7597 21.9402C15.0547 22.7853 16.4767 23.4176 17.9715 23.8132C18.3558 23.908 18.7501 23.9555 19.1459 23.9549C20.5026 23.9466 21.8007 23.4005 22.7552 22.4363L23.5298 21.6618C24.1747 21.0156 24.1747 19.9693 23.5297 19.3231ZM22.8128 20.9714C22.8122 20.972 22.8115 20.9727 22.8108 20.9734L22.8159 20.9582L22.0414 21.7327C21.0462 22.7404 19.5969 23.155 18.2194 22.8262C16.8315 22.4547 15.5122 21.8633 14.3114 21.0747C13.1958 20.3617 12.1619 19.5282 11.2285 18.5891C10.3697 17.7366 9.59813 16.8005 8.92518 15.7948C8.1891 14.7126 7.60649 13.5337 7.1939 12.2917C6.72092 10.8326 7.11287 9.23154 8.20636 8.1559L9.10741 7.25485C9.35793 7.0032 9.76501 7.00231 10.0166 7.25283C10.0172 7.25348 10.018 7.25414 10.0186 7.25485L12.8635 10.0998C13.1152 10.3503 13.1161 10.7574 12.8656 11.009C12.8649 11.0096 12.8643 11.0103 12.8635 11.011L11.193 12.6815C10.7137 13.1556 10.6534 13.909 11.0513 14.4533C11.6555 15.2825 12.3241 16.0628 13.0509 16.787C13.8612 17.6008 14.7421 18.3411 15.6832 18.9992C16.227 19.3785 16.9643 19.3146 17.4347 18.8473L19.0495 17.2072C19.3001 16.9555 19.7071 16.9546 19.9587 17.2052C19.9594 17.2058 19.96 17.2065 19.9607 17.2072L22.8108 20.0623C23.0625 20.3127 23.0634 20.7197 22.8128 20.9714Z" fill="white"/>
</g>
<defs>
<clipPath id="clip0">
<rect width="30" height="30" fill="white"/>
</clipPath>
</defs>
</svg>
