<svg width="70" height="70" viewBox="0 0 70 70" fill="none" xmlns="http://www.w3.org/2000/svg">
<path d="M20.7812 32.8125H18.5938C18.3037 32.8125 18.0255 32.9277 17.8204 33.1329C17.6152 33.338 17.5 33.6162 17.5 33.9062C17.5 34.1963 17.6152 34.4745 17.8204 34.6796C18.0255 34.8848 18.3037 35 18.5938 35H20.7812C21.0713 35 21.3495 34.8848 21.5546 34.6796C21.7598 34.4745 21.875 34.1963 21.875 33.9062C21.875 33.6162 21.7598 33.338 21.5546 33.1329C21.3495 32.9277 21.0713 32.8125 20.7812 32.8125Z" fill="white"/>
<path d="M29.5312 35H31.7188C32.0088 35 32.287 34.8848 32.4921 34.6796C32.6973 34.4745 32.8125 34.1963 32.8125 33.9062C32.8125 33.6162 32.6973 33.338 32.4921 33.1329C32.287 32.9277 32.0088 32.8125 31.7188 32.8125H29.5312C29.2412 32.8125 28.963 32.9277 28.7579 33.1329C28.5527 33.338 28.4375 33.6162 28.4375 33.9062C28.4375 34.1963 28.5527 34.4745 28.7579 34.6796C28.963 34.8848 29.2412 35 29.5312 35Z" fill="white"/>
<path d="M25.2124 38.6272C25.3041 38.9024 25.5015 39.1298 25.7609 39.2596C26.0204 39.3893 26.3207 39.4106 26.5959 39.3189C26.8711 39.2271 27.0986 39.0298 27.2283 38.7703C27.358 38.5109 27.3794 38.2105 27.2876 37.9353L26.1939 34.6541C26.1484 34.5178 26.0766 34.3918 25.9825 34.2833C25.8884 34.1748 25.7738 34.0859 25.6453 34.0217C25.5169 33.9575 25.377 33.9192 25.2337 33.909C25.0905 33.8988 24.9466 33.917 24.8103 33.9624C24.6741 34.0078 24.5481 34.0796 24.4396 34.1738C24.3311 34.2679 24.2422 34.3824 24.1779 34.5109C24.1137 34.6394 24.0754 34.7793 24.0652 34.9225C24.0551 35.0658 24.0732 35.2097 24.1186 35.3459L25.2124 38.6272Z" fill="white"/>
<path d="M19.6875 37.1875C20.2916 37.1875 20.7812 36.6978 20.7812 36.0938C20.7812 35.4897 20.2916 35 19.6875 35C19.0834 35 18.5938 35.4897 18.5938 36.0938C18.5938 36.6978 19.0834 37.1875 19.6875 37.1875Z" fill="white"/>
<path d="M30.625 37.1875C31.2291 37.1875 31.7188 36.6978 31.7188 36.0938C31.7188 35.4897 31.2291 35 30.625 35C30.0209 35 29.5312 35.4897 29.5312 36.0938C29.5312 36.6978 30.0209 37.1875 30.625 37.1875Z" fill="white"/>
<path d="M24.0625 43.75H26.25C26.5401 43.75 26.8183 43.6348 27.0234 43.4296C27.2285 43.2245 27.3438 42.9463 27.3438 42.6562C27.3438 42.3662 27.2285 42.088 27.0234 41.8829C26.8183 41.6777 26.5401 41.5625 26.25 41.5625H24.0625C23.7724 41.5625 23.4942 41.6777 23.2891 41.8829C23.084 42.088 22.9688 42.3662 22.9688 42.6562C22.9688 42.9463 23.084 43.2245 23.2891 43.4296C23.4942 43.6348 23.7724 43.75 24.0625 43.75Z" fill="white"/>
<path d="M40.3083 51.6567C38.0373 50.238 35.4473 49.4107 32.7744 49.2503C32.5719 48.823 32.2791 48.4448 31.9162 48.1418L30.3343 46.8236C31.7455 46.0621 32.9726 45.0006 33.9292 43.7136C34.8859 42.4267 35.5488 40.9458 35.8714 39.375H36.0938C37.0567 39.3753 37.9929 39.0579 38.7569 38.4718C39.521 37.8858 40.0703 37.0639 40.3196 36.1338C40.5689 35.2037 40.5043 34.2173 40.1357 33.3277C39.7672 32.438 39.1153 31.6949 38.2812 31.2136V27.7968C38.2813 27.1627 38.1564 26.5349 37.9137 25.9492C37.6711 25.3634 37.3155 24.8312 36.8672 24.3828C36.4188 23.9345 35.8866 23.5789 35.3008 23.3363C34.7151 23.0936 34.0873 22.9687 33.4532 22.9688H33.3387C33.3393 22.6456 33.276 22.3255 33.1525 22.0268C33.029 21.7282 32.8478 21.4569 32.6191 21.2285L31.9178 20.5272C29.9794 18.5889 27.3505 17.5 24.6094 17.5C21.8682 17.5 19.2393 18.5889 17.301 20.5272L14.4065 23.4218C14.3567 23.4715 14.2892 23.4995 14.2188 23.4995C14.1484 23.4995 14.0809 23.4715 14.0311 23.4218C13.688 23.0787 13.251 22.8451 12.7752 22.7505C12.2994 22.6559 11.8062 22.7044 11.358 22.8901C10.9098 23.0758 10.5267 23.3901 10.2572 23.7935C9.98762 24.1969 9.84376 24.6711 9.84375 25.1562V26.1173C9.84135 26.9969 10.0134 27.8682 10.35 28.6809C10.6866 29.4935 11.1811 30.2313 11.8047 30.8516C11.9106 30.9574 12.0204 31.0578 12.132 31.1556C11.2768 31.6196 10.6007 32.3555 10.2107 33.2468C9.82062 34.1381 9.73883 35.134 9.97825 36.077C10.2177 37.02 10.7646 37.8563 11.5326 38.4536C12.3006 39.0509 13.2458 39.3751 14.2188 39.375H14.4411C14.7574 40.914 15.4005 42.3672 16.3269 43.6361C17.2534 44.9051 18.4416 45.9603 19.8111 46.7303C19.4605 47.0378 19.1837 47.4203 19.0014 47.8496C18.8191 48.2788 18.7359 48.7436 18.7581 49.2094C18.7034 49.2134 18.649 49.2188 18.5934 49.2188H18.5051C14.9281 49.2187 11.4537 50.4144 8.63432 52.6158C5.8149 54.8171 3.81223 57.8977 2.94466 61.3679C2.44202 63.3795 2.18773 65.4451 2.1875 67.5185V67.8125H4.375V67.5185C4.37522 65.6239 4.60757 63.7365 5.06687 61.8985C5.90865 58.5076 8.00705 55.5631 10.9375 53.6607V59.0625C10.9375 59.2412 10.9813 59.4173 11.0651 59.5752C11.1489 59.733 11.2701 59.868 11.4181 59.9682C11.5661 60.0684 11.7364 60.1308 11.9141 60.15C12.0918 60.1691 12.2715 60.1444 12.4375 60.078L13.8928 59.4959L10.0415 64.9977L11.8335 66.2523L18.9175 56.1323L25.6846 59.9992C25.817 60.0749 25.9321 60.1774 26.0226 60.3001C26.113 60.4229 26.1768 60.5632 26.2098 60.7121C26.2428 60.861 26.2443 61.0151 26.2142 61.1646C26.1841 61.3141 26.1231 61.4557 26.035 61.5802L22.8488 66.0874L24.6351 67.3501L27.8213 62.843C28.2297 62.2663 28.4405 61.573 28.4225 60.8666C28.4045 60.1602 28.1586 59.4786 27.7214 58.9235L32.4406 52.6312C32.7029 52.2816 32.8925 51.8829 32.9982 51.4587C33.1988 51.4759 33.3986 51.4984 33.5979 51.5244L31.3908 61.0881C30.8823 63.2934 30.6254 65.5493 30.625 67.8125H32.8125C32.8128 65.7148 33.051 63.624 33.5223 61.5799L34.2074 58.611L37.875 60.078C38.041 60.1444 38.2207 60.1691 38.3984 60.15C38.5761 60.1308 38.7464 60.0684 38.8945 59.9682C39.0425 59.868 39.1637 59.7331 39.2474 59.5752C39.3312 59.4173 39.375 59.2412 39.375 59.0625V53.6607C42.3054 55.5631 44.4039 58.5076 45.2456 61.8985C45.7049 63.7365 45.9373 65.6239 45.9375 67.5185V67.8125H48.125V67.5185C48.1248 65.4451 47.8705 63.3795 47.3678 61.3679C46.368 57.3355 43.8355 53.8518 40.3083 51.6567ZM36.0938 37.1875V32.8125C36.6739 32.8125 37.2303 33.043 37.6405 33.4532C38.0508 33.8634 38.2812 34.4198 38.2812 35C38.2812 35.5802 38.0508 36.1366 37.6405 36.5468C37.2303 36.957 36.6739 37.1875 36.0938 37.1875ZM12.0312 25.1562C12.0313 25.1038 12.0468 25.0524 12.076 25.0088C12.1052 24.9652 12.1467 24.9312 12.1952 24.9111C12.2437 24.891 12.297 24.8858 12.3485 24.896C12.4 24.9063 12.4473 24.9315 12.4844 24.9687C12.9448 25.4279 13.5685 25.6858 14.2188 25.6858C14.8691 25.6858 15.4928 25.4279 15.9532 24.9687L18.8478 22.0741C19.6044 21.3174 20.5026 20.7172 21.4912 20.3077C22.4798 19.8983 23.5393 19.6875 24.6094 19.6875C25.6794 19.6875 26.739 19.8983 27.7275 20.3077C28.7161 20.7172 29.6144 21.3174 30.371 22.0741L31.0723 22.7754C31.1235 22.8267 31.1523 22.8963 31.1523 22.9688C31.1523 23.0412 31.1235 23.1108 31.0723 23.1621L29.8516 24.3828C29.6465 24.5879 29.5312 24.8661 29.5312 25.1562C29.5312 25.4463 29.6464 25.7245 29.8516 25.9296C30.0567 26.1348 30.3349 26.25 30.625 26.25C30.915 26.25 31.1933 26.1348 31.3984 25.9297L32.1718 25.1562H33.4532C34.1535 25.1563 34.8251 25.4345 35.3203 25.9297C35.8155 26.4249 36.0937 27.0965 36.0938 27.7968V30.625H34.6247C34.1936 30.6262 33.7666 30.5419 33.3683 30.3769C32.97 30.2119 32.6084 29.9695 32.3045 29.6638L29.2109 26.5703C29.0057 26.3652 28.7276 26.2501 28.4375 26.2501C28.1474 26.2501 27.8693 26.3652 27.6641 26.5703C26.3816 27.8598 24.8561 28.8822 23.1759 29.5782C21.4956 30.2742 19.694 30.63 17.8753 30.625H16.539C15.3434 30.625 14.1969 30.1501 13.3515 29.3047C12.5062 28.4594 12.0313 27.3128 12.0312 26.1173V25.1562ZM12.0312 35C12.0319 34.42 12.2626 33.864 12.6727 33.4539C13.0828 33.0438 13.6388 32.8132 14.2188 32.8125V37.1875C13.6388 37.1868 13.0828 36.9562 12.6727 36.5461C12.2626 36.136 12.0319 35.58 12.0312 35ZM16.4062 37.1875V32.8093C16.4505 32.8101 16.4946 32.8125 16.539 32.8125H17.8753C21.751 32.8236 25.4975 31.4199 28.4117 28.8647L30.7576 31.2106C31.6059 32.0632 32.7135 32.6099 33.9062 32.7645V37.1875C33.9044 38.9281 33.3845 40.6287 32.4127 42.0727C31.4409 43.5167 30.0613 44.6387 28.4496 45.2959C27.7262 44.8462 26.8562 44.6956 26.0238 44.8761C25.1914 45.0565 24.4619 45.5538 23.9896 46.2626L23.7592 46.6083L23.5742 46.4849C23.3698 46.3487 23.1502 46.2369 22.9198 46.1519C22.87 45.9882 22.7825 45.8385 22.6643 45.7148C22.5461 45.5911 22.4005 45.4969 22.2392 45.4398C20.5341 44.8345 19.0582 43.7163 18.0138 42.2388C16.9695 40.7613 16.4079 38.9968 16.4062 37.1875ZM18.5934 51.4062C18.9014 51.4061 19.2086 51.3735 19.5098 51.309L19.5191 51.3276L17.6912 54.0696L17.3985 54.4878L16.7145 51.5239C17.3082 51.4461 17.9063 51.4068 18.5051 51.4062H18.5934ZM13.125 52.4956C13.598 52.2959 14.0818 52.1227 14.5741 51.9768L15.6073 56.4541L13.125 57.447V52.4956ZM30.6906 51.3188L25.9544 57.6338L20.1538 54.3192L21.6913 52.0129C21.7983 51.8525 21.8609 51.6666 21.8729 51.4742C21.8849 51.2817 21.8458 51.0895 21.7595 50.9171L21.0375 49.4731C20.9475 49.293 20.9195 49.0882 20.9579 48.8906C20.9964 48.6929 21.099 48.5135 21.25 48.3802C21.4009 48.247 21.5917 48.1674 21.7925 48.1538C21.9934 48.1401 22.1932 48.1933 22.3607 48.305L23.4558 49.035C23.6972 49.1959 23.9926 49.2544 24.277 49.1975C24.5614 49.1406 24.8116 48.973 24.9725 48.7317L25.8097 47.476C25.8948 47.3483 26.0059 47.2399 26.1356 47.158C26.2654 47.076 26.4109 47.0223 26.5628 47.0003C26.7147 46.9782 26.8695 46.9884 27.0172 47.0302C27.1648 47.0719 27.3021 47.1442 27.42 47.2425L30.5158 49.8222C30.7313 50.0017 30.8696 50.2571 30.9022 50.5356C30.9347 50.8141 30.859 51.0945 30.6906 51.3188ZM34.7052 56.4541L35.7385 51.9763C36.2308 52.1224 36.7145 52.2958 37.1875 52.4956V57.447L34.7052 56.4541Z" fill="white"/>
<path d="M55.2344 2.1875H51.9531C49.7465 2.18806 47.5788 2.76898 45.6676 3.87197C43.7564 4.97496 42.1689 6.56121 41.0644 8.47155C39.9599 10.3819 39.3773 12.5491 39.375 14.7558C39.3727 16.9624 39.9508 19.1308 41.0513 21.0435L39.4311 25.9042C39.3763 26.0686 39.3614 26.2437 39.3875 26.415C39.4137 26.5863 39.4801 26.749 39.5814 26.8895C39.6828 27.0301 39.8161 27.1446 39.9703 27.2236C40.1246 27.3026 40.2954 27.3437 40.4687 27.3437C40.5289 27.3437 40.5891 27.3388 40.6485 27.3289L46.8995 26.2874C48.492 26.9879 50.2134 27.3477 51.9531 27.3437H55.2344C58.5703 27.3437 61.7696 26.0186 64.1285 23.6597C66.4873 21.3008 67.8125 18.1015 67.8125 14.7656C67.8125 11.4297 66.4873 8.2304 64.1285 5.87155C61.7696 3.51269 58.5703 2.1875 55.2344 2.1875ZM62.5821 22.1133C61.6194 23.0812 60.4743 23.8484 59.213 24.3708C57.9518 24.8931 56.5995 25.1601 55.2344 25.1562H51.9531C50.4188 25.16 48.9029 24.8212 47.5162 24.1646C47.3147 24.0695 47.089 24.0381 46.8692 24.0746L42.0808 24.8725L43.2864 21.2555C43.3378 21.1014 43.3542 20.9377 43.3345 20.7765C43.3147 20.6152 43.2592 20.4604 43.1721 20.3233C42.1774 18.7517 41.6228 16.9419 41.5661 15.0829C41.5095 13.2238 41.9528 11.3836 42.8499 9.75434C43.7469 8.12506 45.0649 6.76642 46.6661 5.82021C48.2674 4.87399 50.0932 4.37489 51.9531 4.375H55.2344C57.2895 4.37512 59.2983 4.98459 61.007 6.12636C62.7157 7.26814 64.0475 8.89093 64.834 10.7896C65.6205 12.6882 65.8263 14.7774 65.4255 16.793C65.0246 18.8086 64.0351 20.6601 62.5821 22.1133Z" fill="white"/>
<path d="M53.5939 5.97676C52.9422 5.97499 52.2966 6.10249 51.6945 6.35188C51.0924 6.60127 50.5457 6.9676 50.0861 7.42967C50.0796 7.43622 50.0731 7.44289 50.0667 7.44957L49.5555 7.9875C48.9918 8.55718 48.677 9.32716 48.6801 10.1286C48.6832 10.9301 49.004 11.6976 49.5722 12.2628C50.1403 12.8281 50.9094 13.145 51.7109 13.1441C52.5123 13.1431 53.2807 12.8244 53.8475 12.2578L54.3673 11.738C54.4689 11.6365 54.5494 11.5159 54.6044 11.3832C54.6594 11.2505 54.6877 11.1083 54.6877 10.9646C54.6877 10.821 54.6594 10.6788 54.6044 10.5461C54.5495 10.4134 54.4689 10.2928 54.3674 10.1912C54.2658 10.0896 54.1452 10.0091 54.0125 9.95409C53.8798 9.89912 53.7376 9.87082 53.594 9.87082C53.4503 9.87081 53.3081 9.8991 53.1754 9.95406C53.0427 10.009 52.9221 10.0896 52.8205 10.1911L52.3007 10.7109C52.2129 10.7988 52.1067 10.8661 51.9897 10.9079C51.8727 10.9497 51.7479 10.9651 51.6242 10.9529C51.5006 10.9406 51.3812 10.9011 51.2747 10.8371C51.1682 10.7732 51.0772 10.6864 51.0083 10.583C50.901 10.4214 50.8528 10.2276 50.8719 10.0345C50.8911 9.84147 50.9763 9.66093 51.1131 9.52344C51.1197 9.5169 51.1262 9.51022 51.1326 9.50355L51.642 8.96748C52.1636 8.45028 52.8691 8.16116 53.6037 8.16357C54.3382 8.16597 55.0418 8.45972 55.5601 8.98032C56.0783 9.50093 56.3688 10.2059 56.3678 10.9404C56.3669 11.675 56.0745 12.3792 55.5549 12.8984L54.3672 14.0862C53.7734 14.6767 53.3027 15.3792 52.9822 16.1529C52.6617 16.9267 52.4979 17.7563 52.5002 18.5937C52.5002 18.8838 52.6154 19.162 52.8205 19.3671C53.0256 19.5723 53.3038 19.6875 53.5939 19.6875C53.884 19.6875 54.1622 19.5723 54.3673 19.3671C54.5724 19.162 54.6877 18.8838 54.6877 18.5937C54.6862 18.0436 54.7938 17.4987 55.0043 16.9905C55.2148 16.4823 55.524 16.0208 55.914 15.6329L57.1017 14.4453C57.7955 13.7515 58.2679 12.8676 58.4594 11.9053C58.6508 10.943 58.5525 9.94559 58.1771 9.03912C57.8016 8.13265 57.1658 7.35788 56.35 6.81279C55.5342 6.26769 54.5751 5.97675 53.5939 5.97676Z" fill="white"/>
<path d="M53.5938 22.9688C54.1978 22.9688 54.6875 22.4791 54.6875 21.875C54.6875 21.2709 54.1978 20.7812 53.5938 20.7812C52.9897 20.7812 52.5 21.2709 52.5 21.875C52.5 22.4791 52.9897 22.9688 53.5938 22.9688Z" fill="white"/>
</svg>
