<svg width="84" height="100" viewBox="0 0 84 100" fill="none" xmlns="http://www.w3.org/2000/svg">
<path d="M83.9929 64.4545C83.9929 59.7384 80.6325 55.7926 76.1802 54.8852V44.3369C76.1802 43.3759 75.7091 42.4763 74.9193 41.9288C74.1294 41.3814 73.1212 41.256 72.2217 41.5937L66.63 43.6906C62.9581 39.8731 58.4947 36.9979 53.6036 35.2328C58.4099 31.6714 61.5315 25.9595 61.5315 19.5317C61.5315 8.76171 52.7698 0 41.9998 0C31.2298 0 22.4681 8.76171 22.4681 19.5317C22.4681 25.9595 25.5897 31.6714 30.396 35.2328C25.5047 36.9981 21.0415 39.8733 17.3696 43.6906L11.7779 41.5937C10.8782 41.256 9.87001 41.3814 9.08035 41.9288C8.29049 42.4763 7.81938 43.3759 7.81938 44.3369V54.8852C3.36714 55.7926 0.00671387 59.7382 0.00671387 64.4545C0.00671387 69.1708 3.36714 73.1164 7.81938 74.0239V85.3534C7.81938 86.5747 8.57701 87.6679 9.7204 88.0966L40.9711 99.8156C41.6301 100.061 42.3693 100.061 43.0283 99.8156L74.279 88.0966C75.4224 87.6679 76.18 86.5747 76.18 85.3534V74.0239C80.6325 73.1164 83.9929 69.1706 83.9929 64.4545ZM28.3276 19.5317C28.3276 11.9928 34.461 5.8595 41.9998 5.8595C49.5386 5.8595 55.672 11.9928 55.672 19.5317C55.672 27.0705 49.5386 33.2038 41.9998 33.2038C34.461 33.2038 28.3276 27.0705 28.3276 19.5317ZM41.9998 39.0633C48.8638 39.0633 55.4198 41.5441 60.5352 45.9762L41.9998 52.9269L23.4644 45.9762C28.58 41.5441 35.136 39.0633 41.9998 39.0633ZM5.86622 64.4545C5.86622 62.3006 7.6186 60.5482 9.77255 60.5482H11.7257V68.3608H9.77255C7.6186 68.3608 5.86622 66.6085 5.86622 64.4545ZM13.6789 74.1221C15.9049 73.6684 17.5852 71.6955 17.5852 69.3374V59.5716C17.5852 57.2135 15.9049 55.2406 13.6789 54.7869V48.5645L39.0701 58.0862V92.845L13.6789 83.3233V74.1221ZM44.9296 92.8448V58.0862L70.3207 48.5645V54.7869C68.0947 55.2406 66.4144 57.2135 66.4144 59.5716V69.3374C66.4144 71.6955 68.0947 73.6684 70.3207 74.1221V83.3231L44.9296 92.8448ZM74.2271 68.3608H72.2739V60.5482H74.2271C76.381 60.5482 78.1334 62.3006 78.1334 64.4545C78.1334 66.6085 76.3812 68.3608 74.2271 68.3608Z" fill="white"/>
</svg>
