<svg width="30" height="30" viewBox="0 0 30 30" fill="none" xmlns="http://www.w3.org/2000/svg">
<path d="M27.7929 4.99992C27.7929 7.24365 25.9742 9.06258 23.7305 9.06258C21.4867 9.06258 19.668 7.24365 19.668 4.99992C19.668 2.75642 21.4867 0.9375 23.7305 0.9375C25.9742 0.9375 27.7929 2.75642 27.7929 4.99992Z" fill="#614970"/>
<path d="M23.7305 10.0001C20.9729 10.0001 18.7305 7.75749 18.7305 4.99992C18.7305 2.24258 20.9729 0 23.7305 0C26.488 0 28.7304 2.24258 28.7304 4.99992C28.7304 7.75749 26.488 10.0001 23.7305 10.0001ZM23.7305 1.875C22.0067 1.875 20.6055 3.27759 20.6055 4.99992C20.6055 6.72249 22.0067 8.12508 23.7305 8.12508C25.4542 8.12508 26.8554 6.72249 26.8554 4.99992C26.8554 3.27759 25.4542 1.875 23.7305 1.875Z" fill="#614970"/>
<path d="M27.7929 25C27.7929 27.2435 25.9742 29.0625 23.7305 29.0625C21.4867 29.0625 19.668 27.2435 19.668 25C19.668 22.7563 21.4867 20.9374 23.7305 20.9374C25.9742 20.9374 27.7929 22.7563 27.7929 25Z" fill="#614970"/>
<path d="M23.7305 30C20.9729 30 18.7305 27.7574 18.7305 25C18.7305 22.2425 20.9729 19.9999 23.7305 19.9999C26.488 19.9999 28.7304 22.2425 28.7304 25C28.7304 27.7574 26.488 30 23.7305 30ZM23.7305 21.8749C22.0067 21.8749 20.6055 23.2775 20.6055 25C20.6055 26.7224 22.0067 28.125 23.7305 28.125C25.4542 28.125 26.8554 26.7224 26.8554 25C26.8554 23.2775 25.4542 21.8749 23.7305 21.8749Z" fill="#614970"/>
<path d="M10.293 15C10.293 17.2438 8.47412 19.0625 6.23039 19.0625C3.98689 19.0625 2.16797 17.2438 2.16797 15C2.16797 12.7563 3.98689 10.9376 6.23039 10.9376C8.47412 10.9376 10.293 12.7563 10.293 15Z" fill="#614970"/>
<path d="M6.23039 20C3.47305 20 1.23047 17.7576 1.23047 15C1.23047 12.2425 3.47305 10.0001 6.23039 10.0001C8.98796 10.0001 11.2305 12.2425 11.2305 15C11.2305 17.7576 8.98796 20 6.23039 20ZM6.23039 11.8751C4.50668 11.8751 3.10547 13.2775 3.10547 15C3.10547 16.7226 4.50668 18.125 6.23039 18.125C7.95433 18.125 9.35555 16.7226 9.35555 15C9.35555 13.2775 7.95433 11.8751 6.23039 11.8751Z" fill="#614970"/>
<path d="M9.18182 14.4001C8.74671 14.4001 8.3242 14.1737 8.09417 13.7688C7.75291 13.1701 7.96302 12.4063 8.56178 12.0637L20.1604 5.45128C20.7591 5.1075 21.5229 5.31761 21.8655 5.91865C22.2068 6.51741 21.9967 7.28119 21.3979 7.62382L9.79911 14.2362C9.60411 14.3475 9.3917 14.4001 9.18182 14.4001Z" fill="#614970"/>
<path d="M20.7792 24.7126C20.5691 24.7126 20.3567 24.66 20.1617 24.5487L8.56292 17.9363C7.96416 17.5951 7.75428 16.8313 8.09554 16.2312C8.43543 15.6313 9.20035 15.42 9.80048 15.7638L21.3993 22.3762C21.998 22.7174 22.2079 23.4812 21.8667 24.0813C21.6355 24.4862 21.213 24.7126 20.7792 24.7126Z" fill="#614970"/>
</svg>
