<svg width="30" height="30" viewBox="0 0 30 30" fill="none" xmlns="http://www.w3.org/2000/svg">
<path d="M27.7928 4.99992C27.7928 7.24365 25.9741 9.06258 23.7304 9.06258C21.4867 9.06258 19.668 7.24365 19.668 4.99992C19.668 2.75642 21.4867 0.9375 23.7304 0.9375C25.9741 0.9375 27.7928 2.75642 27.7928 4.99992Z" fill="#F49A0D"/>
<path d="M23.7304 10.0001C20.9728 10.0001 18.7305 7.75749 18.7305 4.99992C18.7305 2.24258 20.9728 0 23.7304 0C26.488 0 28.7303 2.24258 28.7303 4.99992C28.7303 7.75749 26.488 10.0001 23.7304 10.0001ZM23.7304 1.875C22.0067 1.875 20.6055 3.27759 20.6055 4.99992C20.6055 6.72249 22.0067 8.12508 23.7304 8.12508C25.4541 8.12508 26.8553 6.72249 26.8553 4.99992C26.8553 3.27759 25.4541 1.875 23.7304 1.875Z" fill="#F49A0D"/>
<path d="M27.7928 25.0001C27.7928 27.2436 25.9741 29.0625 23.7304 29.0625C21.4867 29.0625 19.668 27.2436 19.668 25.0001C19.668 22.7564 21.4867 20.9374 23.7304 20.9374C25.9741 20.9374 27.7928 22.7564 27.7928 25.0001Z" fill="#F49A0D"/>
<path d="M23.7304 30C20.9728 30 18.7305 27.7574 18.7305 25.0001C18.7305 22.2425 20.9728 19.9999 23.7304 19.9999C26.488 19.9999 28.7303 22.2425 28.7303 25.0001C28.7303 27.7574 26.488 30 23.7304 30ZM23.7304 21.8749C22.0067 21.8749 20.6055 23.2775 20.6055 25.0001C20.6055 26.7224 22.0067 28.125 23.7304 28.125C25.4541 28.125 26.8553 26.7224 26.8553 25.0001C26.8553 23.2775 25.4541 21.8749 23.7304 21.8749Z" fill="#F49A0D"/>
<path d="M10.293 15C10.293 17.2437 8.47412 19.0624 6.23039 19.0624C3.98689 19.0624 2.16797 17.2437 2.16797 15C2.16797 12.7563 3.98689 10.9376 6.23039 10.9376C8.47412 10.9376 10.293 12.7563 10.293 15Z" fill="#F49A0D"/>
<path d="M6.23039 19.9999C3.47305 19.9999 1.23047 17.7576 1.23047 15C1.23047 12.2424 3.47305 10.0001 6.23039 10.0001C8.98796 10.0001 11.2305 12.2424 11.2305 15C11.2305 17.7576 8.98796 19.9999 6.23039 19.9999ZM6.23039 11.8751C4.50668 11.8751 3.10547 13.2774 3.10547 15C3.10547 16.7225 4.50668 18.1249 6.23039 18.1249C7.95433 18.1249 9.35555 16.7225 9.35555 15C9.35555 13.2774 7.95433 11.8751 6.23039 11.8751Z" fill="#F49A0D"/>
<path d="M9.18191 14.4001C8.74681 14.4001 8.32429 14.1737 8.09426 13.7688C7.753 13.1701 7.96312 12.4063 8.56187 12.0637L20.1605 5.45128C20.7592 5.1075 21.523 5.31761 21.8656 5.91865C22.2069 6.51741 21.9968 7.28119 21.398 7.62382L9.79921 14.2362C9.6042 14.3475 9.3918 14.4001 9.18191 14.4001Z" fill="#F49A0D"/>
<path d="M20.7795 24.7126C20.5694 24.7126 20.357 24.66 20.162 24.5487L8.56316 17.9363C7.96441 17.5951 7.75452 16.8313 8.09579 16.2312C8.43568 15.6313 9.2006 15.42 9.80072 15.7638L21.3995 22.3762C21.9983 22.7174 22.2082 23.4812 21.8669 24.0813C21.6357 24.4862 21.2132 24.7126 20.7795 24.7126Z" fill="#F49A0D"/>
</svg>
