<svg width="30" height="30" viewBox="0 0 30 30" fill="none" xmlns="http://www.w3.org/2000/svg">
<path d="M14.0625 12.1875C9.15158 12.1875 5.15625 16.1828 5.15625 21.0938C5.15625 26.0047 9.15158 30 14.0625 30C18.9734 30 22.9688 26.0047 22.9688 21.0938C22.9688 16.1828 18.9734 12.1875 14.0625 12.1875ZM14.0625 29.0625C9.6685 29.0625 6.09375 25.4878 6.09375 21.0938C6.09375 16.6997 9.6685 13.125 14.0625 13.125C18.4565 13.125 22.0312 16.6997 22.0312 21.0938C22.0312 25.4878 18.4565 29.0625 14.0625 29.0625Z" fill="white"/>
<path d="M14.5313 20.2831V16.4062C14.5313 16.1474 14.3214 15.9375 14.0625 15.9375C13.8037 15.9375 13.5938 16.1474 13.5938 16.4062V20.2831C13.2819 20.4642 13.0858 20.8163 13.1324 21.2055L10.0313 23.5312C9.82416 23.6866 9.7822 23.9804 9.93754 24.1875C10.0921 24.3936 10.3857 24.4373 10.5938 24.2812L13.6944 21.9558C14.3104 22.2198 15 21.7652 15 21.0937C15 20.7476 14.811 20.4455 14.5313 20.2831Z" fill="white"/>
<path d="M26.25 1.875H23.9062V1.40625C23.9062 0.63082 23.2754 0 22.5 0C21.7246 0 21.0938 0.63082 21.0938 1.40625V1.875H7.03125V1.40625C7.03125 0.63082 6.40043 0 5.625 0C4.84957 0 4.21875 0.63082 4.21875 1.40625V1.875H1.875C0.841113 1.875 0 2.71611 0 3.75V23.4375C0 24.4714 0.841113 25.3125 1.875 25.3125H4.6875C4.94637 25.3125 5.15625 25.1026 5.15625 24.8438C5.15625 24.5849 4.94637 24.375 4.6875 24.375H1.875C1.35809 24.375 0.9375 23.9544 0.9375 23.4375V7.5H27.1875V23.4375C27.1875 23.9544 26.7669 24.375 26.25 24.375H23.4375C23.1786 24.375 22.9688 24.5849 22.9688 24.8438C22.9688 25.1026 23.1786 25.3125 23.4375 25.3125H26.25C27.2839 25.3125 28.125 24.4714 28.125 23.4375C28.125 22.5796 28.125 4.69195 28.125 3.75C28.125 2.71611 27.2839 1.875 26.25 1.875ZM22.0312 1.40625C22.0312 1.14779 22.2415 0.9375 22.5 0.9375C22.7585 0.9375 22.9688 1.14779 22.9688 1.40625V3.75C22.9688 4.00846 22.7585 4.21875 22.5 4.21875C22.2415 4.21875 22.0312 4.00846 22.0312 3.75V1.40625ZM5.15625 1.40625C5.15625 1.14779 5.36654 0.9375 5.625 0.9375C5.88346 0.9375 6.09375 1.14779 6.09375 1.40625V3.75C6.09375 4.00846 5.88346 4.21875 5.625 4.21875C5.36654 4.21875 5.15625 4.00846 5.15625 3.75V1.40625ZM0.9375 6.5625V3.75C0.9375 3.23309 1.35809 2.8125 1.875 2.8125H4.21875V3.75C4.21875 4.52543 4.84957 5.15625 5.625 5.15625C6.40043 5.15625 7.03125 4.52543 7.03125 3.75V2.8125H21.0938V3.75C21.0938 4.52543 21.7246 5.15625 22.5 5.15625C23.2754 5.15625 23.9062 4.52543 23.9062 3.75V2.8125H26.25C26.7669 2.8125 27.1875 3.23309 27.1875 3.75V6.5625H0.9375Z" fill="white"/>
<path d="M14.0625 15C14.3214 15 14.5312 14.7901 14.5312 14.5312V14.0625C14.5312 13.8036 14.3214 13.5938 14.0625 13.5938C13.8036 13.5938 13.5938 13.8036 13.5938 14.0625V14.5312C13.5938 14.7901 13.8036 15 14.0625 15Z" fill="white"/>
<path d="M14.0625 27.1875C13.8036 27.1875 13.5938 27.3974 13.5938 27.6562V28.125C13.5938 28.3839 13.8036 28.5938 14.0625 28.5938C14.3214 28.5938 14.5312 28.3839 14.5312 28.125V27.6562C14.5312 27.3974 14.3214 27.1875 14.0625 27.1875Z" fill="white"/>
<path d="M21.0938 20.625H20.625C20.3661 20.625 20.1562 20.8349 20.1562 21.0938C20.1562 21.3526 20.3661 21.5625 20.625 21.5625H21.0938C21.3526 21.5625 21.5625 21.3526 21.5625 21.0938C21.5625 20.8349 21.3526 20.625 21.0938 20.625Z" fill="white"/>
<path d="M7.96875 21.0938C7.96875 20.8349 7.75887 20.625 7.5 20.625H7.03125C6.77238 20.625 6.5625 20.8349 6.5625 21.0938C6.5625 21.3526 6.77238 21.5625 7.03125 21.5625H7.5C7.75887 21.5625 7.96875 21.3526 7.96875 21.0938Z" fill="white"/>
<path d="M10.7776 15.4055C11.0031 15.2784 11.0829 14.9925 10.9558 14.7671C10.8287 14.5416 10.5428 14.4618 10.3173 14.5889C10.0919 14.716 10.0121 15.0019 10.1392 15.2274C10.2663 15.4529 10.5522 15.5326 10.7776 15.4055Z" fill="white"/>
<path d="M17.7341 27.6339C17.9765 27.5428 18.099 27.2725 18.0079 27.0301C17.9168 26.7878 17.6465 26.6653 17.4041 26.7564C17.1618 26.8475 17.0393 27.1178 17.1304 27.3601C17.2215 27.6025 17.4918 27.725 17.7341 27.6339Z" fill="white"/>
<path d="M18.0409 15.0695C18.0774 14.8132 17.8992 14.5759 17.6429 14.5394C17.3866 14.5028 17.1493 14.681 17.1128 14.9373C17.0763 15.1936 17.2545 15.431 17.5108 15.4675C17.767 15.504 18.0044 15.3258 18.0409 15.0695Z" fill="white"/>
<path d="M10.9727 27.3717C11.085 27.1385 10.987 26.8583 10.7538 26.746C10.5205 26.6336 10.2404 26.7316 10.128 26.9649C10.0156 27.1981 10.1137 27.4783 10.3469 27.5906C10.5802 27.703 10.8603 27.605 10.9727 27.3717Z" fill="white"/>
<path d="M20.1621 18.0414C20.4209 18.0391 20.6289 17.8274 20.6266 17.5685C20.6242 17.3096 20.4125 17.1016 20.1536 17.1039C19.8947 17.1063 19.6868 17.318 19.6891 17.5769C19.6914 17.8358 19.9032 18.0438 20.1621 18.0414Z" fill="white"/>
<path d="M8.05955 25.0658C8.31351 25.0158 8.47889 24.7694 8.42892 24.5155C8.37896 24.2615 8.13257 24.0961 7.87861 24.1461C7.62464 24.1961 7.45927 24.4425 7.50923 24.6964C7.5592 24.9504 7.80558 25.1158 8.05955 25.0658Z" fill="white"/>
<path d="M20.5829 24.7482C20.6626 24.502 20.5277 24.2378 20.2815 24.1581C20.0353 24.0783 19.771 24.2133 19.6913 24.4595C19.6116 24.7057 19.7465 24.9699 19.9927 25.0496C20.2389 25.1294 20.5031 24.9944 20.5829 24.7482Z" fill="white"/>
<path d="M8.43251 17.5921C8.44157 17.3335 8.23926 17.1165 7.98064 17.1074C7.72202 17.0984 7.50502 17.3007 7.49596 17.5593C7.4869 17.8179 7.68921 18.0349 7.94783 18.044C8.20645 18.0531 8.42345 17.8507 8.43251 17.5921Z" fill="white"/>
</svg>
