<svg width="200" height="58" viewBox="0 0 200 58" fill="none" xmlns="http://www.w3.org/2000/svg">
<path d="M53.1693 45.9719C53.6681 46.8164 54.3833 47.5159 55.2423 48C56.1013 48.4841 57.074 48.7354 58.0626 48.7288L63.7982 48.6906C64.0376 48.6886 64.2728 48.6248 64.4794 48.5049C64.6861 48.3847 64.8572 48.213 64.9755 48.0073C65.0939 47.8012 65.1556 47.5677 65.1544 47.3306C65.1529 47.0936 65.0884 46.8608 64.9677 46.6563L54.6423 29.1889C54.5232 28.9875 54.4587 28.7591 54.4552 28.5258C54.4517 28.2924 54.5095 28.0622 54.6224 27.8575L65.0661 8.96029C65.1802 8.75377 65.2376 8.52138 65.2329 8.2861C65.2283 8.05081 65.1618 7.82078 65.04 7.61875C64.9181 7.41672 64.745 7.24968 64.538 7.13414C64.3306 7.01861 64.0966 6.95856 63.8591 6.95999L57.7853 7.00043C56.8904 7.00639 56.013 7.2491 55.245 7.70343C54.4767 8.1578 53.845 8.80721 53.4154 9.58445L43.2736 27.9329C43.1603 28.1375 43.1025 28.3677 43.1056 28.601C43.1087 28.8344 43.1732 29.0629 43.2923 29.2643L53.1693 45.9719Z" fill="#2F0D46"/>
<path d="M19.812 33.0425V8.4088C19.8121 8.2379 19.7783 8.06861 19.7123 7.9107C19.6463 7.75274 19.5495 7.60921 19.4275 7.4883C19.3055 7.36739 19.1605 7.2715 19.001 7.20608C18.8415 7.14061 18.6705 7.10693 18.4979 7.10693H13.4246C13.0758 7.10693 12.7413 7.24408 12.4946 7.48823C12.2479 7.73241 12.1094 8.06351 12.1094 8.4088V33.0468L19.812 33.0425Z" fill="#2F0D46"/>
<path d="M38.2685 26.0999H33.0175C32.6643 26.0999 32.3255 26.2387 32.0757 26.486C31.826 26.7332 31.6857 27.0685 31.6857 27.4181V39.6357C31.6884 39.9052 31.5922 40.1666 31.4149 40.3711C31.2376 40.576 30.9912 40.7098 30.7216 40.7481C30.2666 40.8061 29.7918 40.8575 29.3014 40.8946C28.1474 40.9909 26.9559 41.04 25.761 41.04C24.7307 41.04 23.8582 40.851 23.1702 40.4782C22.468 40.1051 21.8336 39.6183 21.2929 39.0386C20.8273 38.5472 20.4514 37.9795 20.182 37.3608C19.8959 36.6733 19.8352 36.2797 19.8352 36.0699V27.2225C19.8352 26.9247 19.7157 26.6392 19.503 26.4287C19.2903 26.2181 19.0018 26.0999 18.7011 26.0999H13.2435C12.9427 26.0999 12.6543 26.2181 12.4416 26.4287C12.2289 26.6392 12.1094 26.9247 12.1094 27.2225V36.0699C12.1189 37.6471 12.4687 39.2041 13.1353 40.6367C13.8233 42.1432 14.7849 43.512 15.9723 44.6747C17.2112 45.8927 18.6659 46.8748 20.2637 47.5724C21.9202 48.3047 23.7644 48.6752 25.7555 48.6752H26.481C27.5986 48.6752 28.8696 48.6141 30.2566 48.4926C31.6659 48.3736 33.0554 48.0851 34.3945 47.6346C35.7077 47.2043 36.8998 46.4739 37.8743 45.5022C38.888 44.4736 39.4027 43.1102 39.4027 41.4499V27.2225C39.4027 26.9247 39.2832 26.6392 39.0703 26.4287C38.8578 26.2181 38.5693 26.0999 38.2685 26.0999Z" fill="#2F0D46"/>
<path d="M35.5442 15.3855L31.6923 15.3931H30.4014C30.7461 15.3966 31.0757 15.5344 31.3186 15.7766C31.5614 16.0189 31.6981 16.3461 31.6989 16.6873V19.2397C31.7081 19.9917 31.9419 20.7243 32.3709 21.3451C32.7998 21.9658 33.4048 22.4471 34.1096 22.7281C34.8143 23.0092 35.5874 23.0776 36.3313 22.9246C37.0753 22.7716 37.7568 22.4042 38.2902 21.8685C38.8236 21.3328 39.1848 20.6529 39.3286 19.9144C39.4723 19.1759 39.3918 18.4118 39.0977 17.7184C38.8035 17.0249 38.3086 16.4332 37.6752 16.0177C37.0419 15.6021 36.2985 15.3814 35.5387 15.3833L35.5442 15.3855Z" fill="#2F0D46"/>
<path d="M35.552 23.0086C37.6787 23.0086 39.4028 21.3021 39.4028 19.1971C39.4028 17.092 37.6787 15.3855 35.552 15.3855C33.4252 15.3855 31.7012 17.092 31.7012 19.1971C31.7012 21.3021 33.4252 23.0086 35.552 23.0086Z" fill="#2F0D46"/>
<path d="M92.296 38.5173C95.4948 38.5173 97.0944 37.0394 97.0944 34.0837V24.3673C97.0944 23.3694 97.6718 22.8677 98.8273 22.8677C99.9315 22.8677 100.484 23.369 100.484 24.3717V34.1756C100.484 36.3333 99.7472 38.0272 98.2749 39.2571C96.8026 40.4875 94.8097 41.1031 92.296 41.1046C89.7827 41.1046 87.7898 40.4887 86.3175 39.2571C84.8448 38.0258 84.1089 36.3318 84.1089 34.1756V24.3673C84.1089 23.3661 84.6608 22.8647 85.7651 22.8633C86.919 22.8633 87.4979 23.365 87.4979 24.363V34.0794C87.4979 37.0394 89.0972 38.5187 92.296 38.5173Z" fill="#2F0D46"/>
<path d="M117.929 26.195H125.621C126.688 26.195 127.361 26.4788 127.64 27.0465C127.818 27.3737 127.907 28.0612 127.908 29.1091C127.908 32.5151 126.955 35.1997 125.05 37.1629C122.968 39.2815 119.986 40.3401 116.106 40.3394C113.922 40.3394 112.056 39.9469 110.507 39.162C108.39 38.1139 106.638 36.4639 105.474 34.4236C104.382 32.529 103.836 30.4365 103.836 28.1461C103.836 24.8756 104.915 22.0748 107.073 19.7436C109.384 17.236 112.393 15.9827 116.1 15.9834C117.879 15.987 119.649 16.2391 121.356 16.7321C123.438 17.3151 124.91 18.1069 125.774 19.1074C125.986 19.3489 126.095 19.6622 126.08 19.9819C126.08 20.8061 125.521 21.2182 124.403 21.2182C123.943 21.2173 123.493 21.084 123.108 20.8345C121.533 19.8762 120.282 19.2586 119.353 18.9817C118.425 18.7048 117.339 18.5663 116.097 18.5663C113.405 18.5663 111.247 19.6088 109.622 21.6937C108.2 23.5154 107.489 25.6433 107.49 28.0772C107.49 30.5549 108.189 32.7159 109.588 34.5603C111.188 36.6874 113.36 37.751 116.103 37.751C117.856 37.751 119.417 37.3885 120.788 36.6634C122.122 35.9748 123.193 34.8731 123.836 33.5262C124.266 32.6161 124.482 31.0344 124.483 28.7812H117.932C116.865 28.7812 116.332 28.3392 116.332 27.4553C116.33 26.6158 116.862 26.1957 117.929 26.195Z" fill="#2F0D46"/>
<path d="M139.497 37.7522C141.559 37.7522 143.493 37.1499 145.301 35.9453C145.811 35.6006 146.243 35.4283 146.599 35.4283C147.517 35.4283 147.976 35.8433 147.975 36.6733C147.975 36.9349 147.746 37.284 147.288 37.7205C146.4 38.5498 145.206 39.2057 143.709 39.6879C142.355 40.1225 140.942 40.3437 139.519 40.3437C136.523 40.3437 134.161 39.418 132.435 37.5663C130.812 35.8422 130 33.6728 130 31.0581C130 28.5746 130.85 26.4832 132.551 24.7838C134.355 22.9963 136.678 22.1025 139.521 22.1025C142.061 22.1025 144.181 22.9406 145.882 24.6166C147.481 26.2256 148.281 28.14 148.281 30.3597C148.281 31.6867 147.53 32.3505 146.028 32.3513H133.39C133.39 33.8255 133.982 35.0945 135.167 36.1585C136.352 37.2224 137.795 37.7536 139.497 37.7522ZM133.387 30.1246H144.889C144.889 28.6155 144.455 27.3646 143.585 26.3721C142.615 25.2499 141.26 24.6891 139.521 24.6898C137.782 24.6906 136.325 25.2244 135.15 26.2912C133.977 27.3581 133.39 28.6359 133.39 30.1246H133.387Z" fill="#2F0D46"/>
<path d="M160.181 37.7522C162.242 37.7522 164.177 37.1499 165.985 35.9453C166.496 35.601 166.927 35.4283 167.284 35.4283C168.2 35.4283 168.659 35.8433 168.659 36.6733C168.659 36.9346 168.431 37.2832 167.973 37.7205C167.084 38.5497 165.89 39.2058 164.392 39.6879C163.039 40.1229 161.625 40.3441 160.202 40.3437C157.205 40.3437 154.845 39.418 153.121 37.5663C151.493 35.8451 150.68 33.6772 150.682 31.0625C150.682 28.579 151.533 26.4876 153.235 24.7882C155.037 23.0007 157.359 22.1069 160.202 22.1069C162.743 22.1069 164.864 22.945 166.564 24.621C168.164 26.23 168.964 28.1443 168.964 30.364C168.964 31.691 168.213 32.3549 166.712 32.3556H154.074C154.074 33.8298 154.666 35.0989 155.85 36.1628C157.034 37.2268 158.477 37.7565 160.181 37.7522ZM154.074 30.1247H165.577C165.577 28.6155 165.142 27.3646 164.272 26.3721C163.304 25.2499 161.95 24.6891 160.209 24.6899C158.468 24.6906 157.011 25.2244 155.838 26.2912C154.662 27.3581 154.074 28.6359 154.074 30.1247Z" fill="#2F0D46"/>
<path d="M172.428 38.8309V15.6882C172.428 14.7263 172.98 14.2454 174.084 14.2454C175.239 14.2454 175.816 14.7485 175.817 15.7549V28.4226L183.842 22.5637C184.239 22.2683 184.722 22.1067 185.219 22.1024C186.187 22.1024 186.671 22.5637 186.672 23.4863C186.672 23.9038 186.468 24.2514 186.061 24.54L178.047 30.0054L187.213 37.716C187.427 37.8915 187.599 38.112 187.716 38.3616C187.834 38.6112 187.893 38.8835 187.891 39.1588C187.891 39.948 187.409 40.3405 186.443 40.3405C185.81 40.3405 185.228 40.1 184.691 39.6201L175.818 31.6975V38.834C175.818 39.8378 175.241 40.3397 174.086 40.3405C173.87 40.344 173.656 40.3053 173.456 40.2268C173.255 40.1479 173.073 40.0312 172.918 39.8823C172.766 39.7516 172.643 39.5904 172.559 39.409C172.474 39.2277 172.43 39.0305 172.428 38.8309Z" fill="#2F0D46"/>
<path d="M145.452 44.4026C145.622 44.174 145.844 43.9888 146.101 43.8628C146.358 43.7367 146.641 43.6733 146.928 43.6779C147.272 43.6702 147.612 43.7479 147.918 43.9038C148.224 44.0592 148.485 44.2885 148.679 44.5696C149.084 45.1218 149.293 45.7907 149.275 46.4728C149.275 47.2465 149.069 47.888 148.657 48.3964C148.216 48.9389 147.606 49.21 146.828 49.21C146.165 49.21 145.706 48.9644 145.452 48.4742V48.802C145.444 48.9153 145.395 49.0217 145.313 49.1006C145.225 49.176 145.111 49.215 144.995 49.21C144.937 49.21 144.879 49.1976 144.826 49.1736C144.773 49.1497 144.725 49.1149 144.688 49.0712C144.604 48.9861 144.558 48.8724 144.558 48.7541V41.7694C144.555 41.6464 144.598 41.5265 144.677 41.4326C144.716 41.3869 144.765 41.3506 144.82 41.3266C144.875 41.3026 144.935 41.2914 144.995 41.2938C145.3 41.2938 145.452 41.4457 145.452 41.7496V44.4026ZM148.381 46.4333C148.395 45.9755 148.284 45.5223 148.06 45.1218C147.797 44.6844 147.422 44.464 146.932 44.4606C146.72 44.4598 146.509 44.5073 146.317 44.5994C145.681 44.9075 145.362 45.525 145.361 46.4519C145.344 46.9294 145.474 47.4008 145.734 47.8029C145.866 48.0009 146.047 48.1617 146.26 48.2708C146.472 48.3794 146.71 48.432 146.949 48.4239C147.183 48.4332 147.414 48.3759 147.616 48.2584C147.818 48.1412 147.981 47.9692 148.086 47.7627C148.283 47.4158 148.381 46.9727 148.381 46.4333Z" fill="#2F0D46"/>
<path d="M151.451 48.9443L149.826 44.3224C149.796 44.2478 149.779 44.1682 149.776 44.0877C149.774 44.034 149.783 43.9806 149.802 43.9304C149.821 43.8801 149.85 43.8337 149.886 43.7946C149.925 43.756 149.971 43.7254 150.023 43.7053C150.074 43.6852 150.128 43.6755 150.184 43.6779C150.287 43.6697 150.39 43.6984 150.475 43.7583C150.559 43.8182 150.62 43.906 150.645 44.0058L151.886 47.722H151.911L153.151 43.9872C153.175 43.8956 153.23 43.8155 153.307 43.7595C153.384 43.7038 153.478 43.6755 153.574 43.6798C153.856 43.6798 153.996 43.8167 153.996 44.0897C153.996 44.1697 153.983 44.2494 153.956 44.3248L151.587 50.999C151.494 51.2573 151.336 51.3861 151.117 51.3861C151.064 51.388 151.012 51.3783 150.965 51.3578C150.917 51.3373 150.875 51.306 150.841 51.267C150.768 51.1885 150.729 51.0856 150.73 50.9793C150.728 50.8815 150.746 50.7836 150.781 50.692L151.451 48.9443Z" fill="#2F0D46"/>
<path d="M157.472 48.732V42.3168C157.472 41.9986 157.623 41.8401 157.928 41.8401C158.233 41.8401 158.364 41.9986 158.364 42.3168V48.7123C158.364 49.0433 158.219 49.2092 157.928 49.21C157.623 49.21 157.472 49.0503 157.472 48.732Z" fill="#2F0D46"/>
<path d="M160.844 42.6841H159.439C159.33 42.686 159.224 42.647 159.143 42.5747C159.102 42.5399 159.07 42.4966 159.048 42.4479C159.026 42.3988 159.016 42.3462 159.017 42.2928C159.016 42.2391 159.027 42.1857 159.05 42.137C159.072 42.0883 159.106 42.045 159.147 42.0105C159.234 41.9378 159.345 41.8988 159.459 41.9015H163.13C163.424 41.9015 163.571 42.0322 163.571 42.294C163.571 42.5554 163.437 42.6864 163.168 42.6864H161.732V48.7552C161.735 48.8155 161.725 48.8758 161.702 48.9323C161.68 48.9887 161.647 49.0398 161.604 49.0831C161.56 49.1264 161.509 49.16 161.452 49.1824C161.395 49.2049 161.333 49.2153 161.272 49.213C161.214 49.213 161.156 49.2006 161.102 49.1766C161.049 49.1523 161.002 49.1171 160.964 49.073C160.882 48.9879 160.836 48.8743 160.836 48.7559L160.844 42.6841Z" fill="#2F0D46"/>
<path d="M163.261 46.0312H165.328C165.609 46.0312 165.749 46.1635 165.749 46.428C165.749 46.6801 165.609 46.8061 165.328 46.8061H163.281C163.173 46.8054 163.067 46.7706 162.981 46.7068C162.937 46.6789 162.901 46.6403 162.877 46.595C162.852 46.5498 162.84 46.4991 162.84 46.4477C162.842 46.3379 162.887 46.2331 162.966 46.1554C163.044 46.0777 163.15 46.0332 163.261 46.0312Z" fill="#2F0D46"/>
<path d="M166.703 48.6129V42.3168C166.703 41.9986 166.854 41.8401 167.159 41.8401C167.464 41.8401 167.601 42.0118 167.601 42.3563V48.3156H169.455C169.804 48.3156 169.979 48.4478 169.979 48.7123C169.979 49.0042 169.853 49.1496 169.598 49.1496H167.129C166.845 49.1496 166.703 48.9706 166.703 48.6129Z" fill="#2F0D46"/>
<path d="M172.632 49.2099C172.288 49.218 171.946 49.145 171.636 48.9969C171.325 48.8484 171.055 48.6291 170.846 48.3573C170.431 47.8345 170.224 47.2 170.225 46.453C170.225 45.7059 170.433 45.0652 170.846 44.5305C171.061 44.2641 171.334 44.0495 171.644 43.9018C171.954 43.7541 172.293 43.6775 172.637 43.6775C172.981 43.6775 173.321 43.7541 173.631 43.9018C173.941 44.0495 174.213 44.2641 174.428 44.5305C174.836 45.0521 175.041 45.6928 175.041 46.453C175.041 47.2132 174.833 47.8477 174.418 48.3573C174.211 48.6303 173.941 48.8503 173.63 48.9988C173.319 49.1473 172.977 49.2196 172.632 49.2099ZM172.632 48.425C172.868 48.4362 173.104 48.3836 173.312 48.2722C173.52 48.1613 173.693 47.9958 173.814 47.7943C174.035 47.4452 174.145 46.9982 174.145 46.453C174.159 45.9832 174.04 45.5192 173.802 45.1128C173.678 44.9148 173.505 44.7509 173.3 44.6368C173.095 44.5227 172.863 44.4624 172.628 44.4613C172.393 44.4605 172.161 44.5185 171.955 44.6306C171.748 44.7428 171.574 44.9048 171.448 45.102C171.214 45.5134 171.1 45.9812 171.117 46.453C171.117 46.9924 171.227 47.4394 171.448 47.7943C171.57 47.995 171.744 48.1597 171.953 48.2707C172.161 48.3817 172.396 48.435 172.632 48.425Z" fill="#2F0D46"/>
<path d="M179.525 48.4249L179.506 48.4346C179.354 48.6817 179.138 48.8839 178.88 49.0204C178.622 49.1565 178.332 49.2218 178.04 49.2098C177.325 49.2098 176.746 48.9121 176.305 48.3166C175.904 47.7629 175.697 47.0948 175.713 46.4135C175.713 45.6672 175.908 45.0396 176.297 44.5304C176.494 44.2563 176.757 44.0351 177.061 43.8862C177.366 43.7374 177.703 43.6658 178.042 43.6778C178.342 43.6739 178.639 43.7374 178.91 43.8634C179.184 43.9806 179.411 44.184 179.555 44.4419C179.547 44.2849 179.561 44.1279 179.596 43.9748C179.62 43.8978 179.67 43.8313 179.738 43.7865C179.805 43.7412 179.886 43.7203 179.967 43.7269C180.274 43.7269 180.429 43.8789 180.429 44.1836V48.7748C180.429 49.5617 180.225 50.1839 179.817 50.6417C179.395 51.118 178.79 51.3566 178 51.3566C177.621 51.3508 177.245 51.2835 176.887 51.1575C176.425 51.0051 176.121 50.8099 175.974 50.5717C175.908 50.4777 175.87 50.3675 175.863 50.2535C175.863 50.0559 175.974 49.9561 176.205 49.9561C176.338 49.9561 176.536 50.0439 176.816 50.2198C177.18 50.4553 177.606 50.5779 178.04 50.5717C178.636 50.5717 179.048 50.3466 179.275 49.8962C179.441 49.5706 179.525 49.0795 179.525 48.4249ZM176.606 46.4572C176.594 46.9161 176.709 47.3693 176.937 47.7691C177.205 48.2064 177.577 48.4268 178.054 48.4303C178.286 48.435 178.516 48.3801 178.72 48.2714C178.925 48.1627 179.098 48.0034 179.222 47.8093C179.483 47.4289 179.617 46.9772 179.605 46.5175C179.605 45.9526 179.491 45.4897 179.263 45.1282C179.137 44.9186 178.957 44.7466 178.741 44.6302C178.524 44.5138 178.281 44.4573 178.034 44.467C177.571 44.467 177.205 44.694 176.937 45.1479C176.71 45.5458 176.595 45.9963 176.602 46.4529L176.606 46.4572Z" fill="#2F0D46"/>
<path d="M182.074 42.9497C182.002 42.9497 181.929 42.935 181.863 42.906C181.797 42.877 181.737 42.8344 181.688 42.7811C181.635 42.7308 181.594 42.6709 181.565 42.6044C181.537 42.5379 181.522 42.4663 181.522 42.3944C181.521 42.3213 181.535 42.249 181.563 42.1814C181.59 42.1137 181.631 42.0526 181.683 42.0008C181.733 41.9482 181.794 41.9064 181.861 41.8786C181.929 41.8504 182.001 41.8365 182.074 41.838C182.149 41.8372 182.222 41.8515 182.291 41.8794C182.36 41.9072 182.422 41.9486 182.475 42.0008C182.529 42.0511 182.572 42.1122 182.602 42.1794C182.631 42.2471 182.646 42.3198 182.646 42.3933C182.646 42.4667 182.631 42.5394 182.602 42.6071C182.572 42.6744 182.529 42.7351 182.475 42.7857C182.423 42.8383 182.361 42.8801 182.292 42.9083C182.223 42.9365 182.149 42.9504 182.074 42.9497ZM181.633 48.7504V44.1518C181.629 44.0292 181.672 43.9094 181.752 43.8154C181.79 43.7698 181.839 43.7338 181.894 43.7095C181.949 43.6855 182.009 43.6743 182.069 43.6766C182.374 43.6766 182.526 43.8286 182.526 44.1325V48.7516C182.526 49.0555 182.374 49.2086 182.069 49.2086C182.01 49.2086 181.953 49.1959 181.9 49.1719C181.847 49.1479 181.8 49.1124 181.762 49.0687C181.679 48.984 181.632 48.8707 181.633 48.7528V48.7504Z" fill="#2F0D46"/>
<path d="M185.016 46.2867L183.566 44.4288C183.473 44.3209 183.418 44.1863 183.408 44.0448C183.408 43.8032 183.542 43.6821 183.81 43.6821C183.885 43.6817 183.959 43.6995 184.026 43.7339C184.092 43.7684 184.149 43.8186 184.191 43.8801L185.535 45.6387L186.86 43.8898C186.903 43.8283 186.96 43.7773 187.026 43.7413C187.092 43.7053 187.166 43.6848 187.241 43.6821C187.495 43.6821 187.622 43.8186 187.622 44.092C187.618 44.2072 187.574 44.3174 187.499 44.4044L186.056 46.2925L187.703 48.4149C187.819 48.5549 187.883 48.7304 187.883 48.9114C187.883 48.9594 187.873 49.0069 187.853 49.0502C187.833 49.0939 187.804 49.1326 187.767 49.1639C187.696 49.2335 187.599 49.2726 187.499 49.2733C187.323 49.2733 187.162 49.1759 187.013 48.9814L185.531 46.9363L184.029 48.9957C183.979 49.0657 183.913 49.1221 183.836 49.1604C183.759 49.1987 183.673 49.2173 183.587 49.2142C183.34 49.2142 183.217 49.0873 183.217 48.836C183.215 48.6775 183.268 48.5228 183.367 48.3987L185.016 46.2867Z" fill="#2F0D46"/>
</svg>
