<svg width="20" height="20" viewBox="0 0 20 20" fill="none" xmlns="http://www.w3.org/2000/svg">
<path d="M17.8125 1.87489H16.707L16.222 0.808052C16.1878 0.732856 16.1252 0.674253 16.048 0.645054C15.9707 0.615855 15.885 0.618436 15.8096 0.652232L14.5358 1.22348L14.347 0.808013C14.3128 0.732844 14.2502 0.674264 14.173 0.645074C14.0957 0.615884 14.01 0.618458 13.9347 0.652232L13.2376 0.964732L13.4932 1.53504L13.9067 1.34969L14.9975 3.74989H8.55242L12.7961 1.84754L12.5404 1.27723L11.207 1.87489H2.1875C1.77324 1.87535 1.37608 2.04012 1.08316 2.33305C0.790235 2.62597 0.625465 3.02313 0.625 3.43739V7.18739H1.25V6.02051L2.08113 6.2184L2.22566 5.61044L1.25 5.37809V4.68321C1.43026 4.81929 1.63818 4.91418 1.8591 4.96118L14.2573 7.59516C14.467 7.64058 14.655 7.75623 14.79 7.923C14.9251 8.08976 14.9992 8.29764 15 8.51223V17.9321C15 18.0541 14.9728 18.1744 14.9202 18.2845C14.8677 18.3945 14.7912 18.4914 14.6964 18.5681C14.6015 18.6447 14.4908 18.6992 14.3722 18.7275C14.2536 18.7559 14.1301 18.7573 14.0109 18.7317L1.99105 16.1561C1.7817 16.1104 1.59421 15.9946 1.45949 15.8279C1.32477 15.6613 1.25088 15.4537 1.25 15.2394V15.0741L1.77449 15.1865L1.90547 14.5754L1.25 14.4348V7.81239H0.625V15.2394C0.62648 15.5965 0.749645 15.9425 0.97418 16.2202C1.19871 16.498 1.51121 16.6909 1.86012 16.7672L13.8796 19.3428C14.09 19.388 14.3078 19.3855 14.5171 19.3355C14.7264 19.2856 14.9219 19.1895 15.0892 19.0542C15.2565 18.919 15.3915 18.748 15.4842 18.5539C15.5769 18.3597 15.625 18.1473 15.625 17.9321V14.3749H17.8125C18.2268 14.3744 18.6239 14.2097 18.9168 13.9167C19.2098 13.6238 19.3745 13.2266 19.375 12.8124V11.2499H18.75V12.8124C18.7497 13.0609 18.6508 13.2992 18.4751 13.475C18.2993 13.6507 18.0611 13.7496 17.8125 13.7499H15.625V8.51223C15.6242 8.14086 15.4911 7.78193 15.2495 7.49989H18.75V10.6249H19.375V3.43739C19.3745 3.02313 19.2098 2.62597 18.9168 2.33305C18.6239 2.04012 18.2268 1.87535 17.8125 1.87489ZM14.7944 1.79251L15.7817 1.34977L16.8725 3.74989H15.6841L14.7944 1.79251ZM1.35512 3.86364C1.28636 3.73206 1.25031 3.58585 1.25 3.43739C1.25029 3.18884 1.34915 2.95055 1.52491 2.7748C1.70066 2.59904 1.93895 2.50018 2.1875 2.49989H9.81301L7.02461 3.74989H1.875C1.69555 3.75002 1.51823 3.78882 1.35512 3.86364ZM17.5 6.87489H13.8744L7.99066 5.62489H16.875C17.0407 5.62508 17.1996 5.691 17.3167 5.80816C17.4339 5.92533 17.4998 6.08419 17.5 6.24989V6.87489ZM18.75 6.87489H18.125V6.24989C18.1246 5.91848 17.9928 5.60076 17.7585 5.36642C17.5241 5.13208 17.2064 5.00026 16.875 4.99989H5.04879L2.10691 4.37489H18.75V6.87489ZM18.75 3.74989H17.5591L16.9909 2.49989H17.8125C18.0611 2.50018 18.2993 2.59904 18.4751 2.7748C18.6508 2.95055 18.7497 3.18884 18.75 3.43739V3.74989ZM8.01676 15.8848L9.23899 16.1465L9.10797 16.7577L7.88574 16.496L8.01676 15.8848ZM3.12766 14.8371L4.34992 15.0988L4.21902 15.71L2.99676 15.4482L3.12766 14.8371ZM5.57223 15.3609L6.79445 15.6227L6.66348 16.2338L5.44141 15.9721L5.57223 15.3609ZM12.9057 16.9324L14.128 17.1941L13.997 17.8052L12.7747 17.5435L12.9057 16.9324ZM10.4612 16.4086L11.6835 16.6705L11.5525 17.2816L10.3303 17.0199L10.4612 16.4086ZM13.17 8.21614L14.1348 8.4459L13.99 9.05387L13.0251 8.82411L13.17 8.21614ZM10.738 7.63712L11.9539 7.92665L11.8091 8.53462L10.5932 8.24508L10.738 7.63712ZM6.945 7.37653L5.72898 7.087L5.87379 6.47899L7.08977 6.76852L6.945 7.37653ZM4.51301 6.79747L3.29699 6.5079L3.44176 5.89993L4.65777 6.18946L4.51301 6.79747ZM9.37699 7.95555L8.16102 7.66602L8.30582 7.05801L9.5218 7.34758L9.37699 7.95555ZM13.75 14.9999H14.375V16.2499H13.75V14.9999ZM14.375 11.2499H13.75V9.99989H14.375V11.2499ZM14.375 13.7499H13.75V12.4999H14.375V13.7499ZM12.5758 10.3217L11.3258 10.0092C11.2797 9.99771 11.2316 9.99684 11.1852 10.0067C11.1387 10.0165 11.0951 10.0369 11.0577 10.0661C11.0203 10.0953 10.99 10.1327 10.9692 10.1754C10.9483 10.218 10.9375 10.2649 10.9375 10.3124V14.6874C10.9375 14.7571 10.9608 14.8248 11.0037 14.8797C11.0466 14.9346 11.1066 14.9737 11.1742 14.9906L12.5 15.3124C12.6611 15.3515 12.8125 15.2489 12.8125 14.9999V10.6249C12.8125 10.5552 12.7892 10.4875 12.7463 10.4326C12.7034 10.3776 12.6434 10.3386 12.5758 10.3217ZM12.1875 14.5997L11.5625 14.4434V10.7126L12.1875 10.8689V14.5997Z" fill="#AB30FC"/>
</svg>
