<svg width="16" height="16" viewBox="0 0 136 110" fill="none" xmlns="http://www.w3.org/2000/svg">
<path d="M105.113 102.74C106.39 104.964 108.221 106.806 110.42 108.08C112.619 109.355 115.109 110.017 117.64 110L132.323 109.899C132.936 109.894 133.538 109.726 134.067 109.41C134.596 109.094 135.034 108.642 135.337 108.099C135.64 107.557 135.798 106.942 135.795 106.318C135.791 105.693 135.626 105.081 135.317 104.542L108.884 58.5406C108.579 58.0104 108.414 57.4088 108.405 56.7943C108.396 56.1799 108.544 55.5736 108.833 55.0344L135.569 5.26803C135.861 4.72414 136.008 4.11212 135.996 3.49249C135.984 2.87285 135.814 2.26705 135.502 1.73498C135.19 1.20291 134.747 0.762995 134.217 0.45872C133.686 0.154445 133.087 -0.00365125 132.479 6.40015e-05L116.93 0.106573C114.639 0.122265 112.393 0.761493 110.427 1.95802C108.46 3.15455 106.843 4.86486 105.743 6.91174L79.7795 55.233C79.4895 55.7719 79.3415 56.3781 79.3499 56.9926C79.3584 57.6071 79.5229 58.2088 79.8276 58.7393L105.113 102.74Z" fill="#2F0D46"/>
<path d="M19.7187 68.6888V3.81521C19.7191 3.36511 19.6324 2.91935 19.4635 2.5034C19.2946 2.08745 19.0468 1.70948 18.7344 1.39108C18.422 1.07267 18.051 0.820089 17.6426 0.647756C17.2343 0.475423 16.7966 0.386719 16.3545 0.386719H3.36703C2.47404 0.386719 1.61762 0.747934 0.986183 1.3909C0.354743 2.03387 0 2.90592 0 3.81521V68.7004L19.7187 68.6888Z" fill="#2F0D46"/>
<path d="M66.9674 50.4055H53.5247C52.6205 50.4055 51.7533 50.7713 51.1139 51.4223C50.4745 52.0734 50.1153 52.9564 50.1153 53.8772V86.0521C50.1224 86.7621 49.8761 87.4506 49.4221 87.9896C48.9682 88.5286 48.3375 88.8814 47.6472 88.9825C46.4825 89.1351 45.2669 89.2704 44.0117 89.3683C41.0574 89.6216 38.007 89.7511 34.9481 89.7511C32.3105 89.7511 30.0771 89.2531 28.3158 88.2715C26.5182 87.2883 24.894 86.007 23.5098 84.4803C22.3178 83.1861 21.3555 81.691 20.6658 80.0615C19.9336 78.2509 19.7781 77.2145 19.7781 76.6618V53.3619C19.7781 52.5778 19.4722 51.8259 18.9277 51.2714C18.3832 50.717 17.6447 50.4055 16.8747 50.4055H2.90339C2.13337 50.4055 1.39488 50.717 0.850387 51.2714C0.305896 51.8259 0 52.5778 0 53.3619V76.6618C0.02439 80.8156 0.919814 84.9161 2.62634 88.6889C4.38773 92.6562 6.84944 96.2606 9.88905 99.3227C13.0607 102.531 16.7846 105.117 20.875 106.954C25.1156 108.883 29.8368 109.859 34.934 109.859H36.7913C39.6523 109.859 42.9063 109.697 46.4571 109.378C50.0648 109.064 53.6218 108.305 57.05 107.118C60.4116 105.985 63.4635 104.061 65.9581 101.502C68.5534 98.793 69.8708 95.2033 69.8708 90.8306V53.3619C69.8708 52.5778 69.5649 51.8259 69.0204 51.2714C68.4759 50.717 67.7374 50.4055 66.9674 50.4055Z" fill="#2F0D46"/>
<path d="M59.9928 22.1889L50.132 22.209H46.8271C47.7098 22.2181 48.5534 22.581 49.1751 23.2189C49.7969 23.8569 50.1468 24.7186 50.1489 25.6174V32.3391C50.1724 34.3196 50.7709 36.2488 51.8691 37.8836C52.9672 39.5184 54.516 40.7857 56.3202 41.526C58.1244 42.2662 60.1033 42.4463 62.0078 42.0434C63.9123 41.6406 65.6572 40.6728 67.0225 39.2621C68.3879 37.8514 69.3128 36.0608 69.6806 34.1159C70.0485 32.171 69.8429 30.1587 69.0897 28.3326C68.3366 26.5064 67.0695 24.948 65.4482 23.8537C63.8269 22.7594 61.9238 22.1782 59.9786 22.1831L59.9928 22.1889Z" fill="#2F0D46"/>
<path d="M60.0122 42.2645C65.4566 42.2645 69.8702 37.7704 69.8702 32.2266C69.8702 26.6828 65.4566 22.1887 60.0122 22.1887C54.5678 22.1887 50.1543 26.6828 50.1543 32.2266C50.1543 37.7704 54.5678 42.2645 60.0122 42.2645Z" fill="#2F0D46"/>
</svg>
